<?xml version="1.0" encoding="UTF-8" standalone="no"?>
<!-- Generator: Adobe Illustrator 27.3.1, SVG Export Plug-In . SVG Version: 6.00 Build 0)  -->

<svg
   version="1.1"
   id="svg5"
   x="0px"
   y="0px"
   viewBox="0 0 1671.8 524.4"
   style="enable-background:new 0 0 1671.8 524.4;"
   xml:space="preserve"
   sodipodi:docname="map-mun-pr-vc.svg"
   inkscape:version="1.2.2 (b0a84865, 2022-12-01)"
   xmlns:inkscape="http://www.inkscape.org/namespaces/inkscape"
   xmlns:sodipodi="http://sodipodi.sourceforge.net/DTD/sodipodi-0.dtd"
   xmlns="http://www.w3.org/2000/svg"
   xmlns:svg="http://www.w3.org/2000/svg">
<style
   type="text/css"
   id="style127">
	.st0{fill:#EBEBEB;stroke:#CCCCCC;stroke-width:1.9191;stroke-miterlimit:6.8242;}
	.st1{fill:#EBEBEB;stroke:#CCCCCC;stroke-width:0.25;stroke-miterlimit:6.8242;}
</style>
<sodipodi:namedview
   bordercolor="#eeeeee"
   borderopacity="1"
   id="namedview7"
   inkscape:current-layer="layer1"
   inkscape:cx="1093.9811"
   inkscape:cy="128.42386"
   inkscape:deskcolor="#505050"
   inkscape:document-units="mm"
   inkscape:pagecheckerboard="0"
   inkscape:pageopacity="0"
   inkscape:showpageshadow="0"
   inkscape:window-height="1200"
   inkscape:window-maximized="0"
   inkscape:window-width="2249"
   inkscape:window-x="183"
   inkscape:window-y="38"
   inkscape:zoom="0.84096521"
   pagecolor="#505050"
   showgrid="false">
	</sodipodi:namedview>
<defs
   id="defs131">
	
		<inkscape:perspective
   id="perspective2639"
   inkscape:persp3d-origin="529.12622 : 86.422656 : 1"
   inkscape:vp_x="0 : 185.63399 : 1"
   inkscape:vp_y="0 : 999.99997 : 0"
   inkscape:vp_z="1058.2524 : 185.63399 : 1"
   sodipodi:type="inkscape:persp3d">
		</inkscape:perspective>
</defs>
<g
   id="layer1"
   inkscape:groupmode="layer"
   inkscape:label="mapLeyer">
	<polygon
   id="Adjuntas"
   inkscape:label="Adjuntas"
   class="st0"
   points="417.6,336.1 415.3,336.1 408.5,336.1 406.1,333.7    403.9,333.7 401.7,333.7 399.3,336.1 397.1,336.1 392.5,336.1 387.9,331.5 387.9,329.1 387.9,326.9 387.9,324.7 385.7,324.7    378.8,322.3 374.2,320.1 372,315.5 369.8,313.3 372,308.6 369.8,304 369.8,299.4 365.2,297.4 363,295 360.6,292.8 360.6,286    360.6,272.3 363,265.5 365.2,256.3 365.2,254.1 367.4,254.1 369.8,254.1 372,254.1 376.6,256.3 387.9,258.7 390.3,258.7    390.3,256.3 392.5,256.3 390.3,251.7 390.3,247.2 390.3,244.8 394.9,240.4 394.9,238 397.1,238 403.9,238 408.5,240.4 420,249.4    420,251.7 422.2,254.1 422.2,258.7 426.8,260.9 438.2,263.1 440.4,263.1 444.9,258.7 465.5,267.7 476.9,267.7 481.4,272.3    481.4,274.5 486,276.7 486,279.1 486,281.3 483.8,286 486,290.4 486,292.8 490.6,295 492.8,297.4 495.2,299.4 499.6,301.8    499.6,304 495.2,308.6 492.8,308.6 490.6,315.5 490.6,322.3 495.2,320.1 492.8,326.9 492.8,331.5 490.6,340.5 488.2,340.5    486,340.5 483.8,338.3 474.5,340.5 467.7,340.5 463.1,340.5 460.9,338.3 456.3,338.3 456.3,342.8 454.1,342.8 451.9,345.2    449.5,347.4 451.9,349.8 449.5,352 449.5,354.4 444.9,354.4 438.2,352 435.8,352 431.2,354.4 431.2,352 426.8,349.8 426.8,347.4    424.4,342.8 422.2,340.5 422.2,338.3  ">
	</polygon>
	<polygon
   id="Aguada"
   inkscape:label="Aguada"
   class="st0"
   points="53,126.4 59.8,124.2 68.8,119.6 75.7,117.4 82.5,112.8    89.3,108.2 100.8,99.1 103.1,99.1 103.1,103.7 105.4,112.8 107.6,115 105.4,117.4 112.2,117.4 112.2,119.6 116.8,119.6    116.8,121.8 119,121.8 123.6,119.6 125.8,131 128.2,135.5 128.2,142.5 128.2,144.7 128.2,149.3 125.8,153.7 123.6,156.1    121.2,156.1 123.6,158.3 125.8,165.2 121.2,169.8 125.8,178.8 125.8,181.2 121.2,181.2 110,176.6 107.6,178.8 103.1,178.8    100.8,181.2 100.8,183.4 98.5,183.4 91.7,178.8 91.7,181.2 87.1,183.4 84.9,183.4 82.5,183.4 80.3,181.2 73.5,169.8 71.1,167.6    62,165.2 59.8,165.2 48.4,153.7 48.4,146.9 48.4,144.7 39.2,131 43.8,128.7  ">
	</polygon>
	<polygon
   id="Aguadilla"
   inkscape:label="Aguadilla"
   class="st0"
   points="107.6,94.5 105.4,83.3 103.1,76.5 103.1,71.8 100.8,67.2    100.8,65 98.5,62.6 96.1,55.8 93.9,46.8 96.1,42.2 98.5,39.9 107.6,30.9 112.2,26.3 121.2,21.7 128.2,19.5 132.7,17.1 139.5,17.1    144.1,14.9 153.3,17.1 155.5,19.5 157.7,23.9 162.3,28.5 164.6,30.9 164.6,35.3 164.6,37.6 166.9,37.6 171.4,37.6 180.6,42.2    182.8,46.8 182.8,53.6 185.2,53.6 185.2,60.4 171.4,65 171.4,69.6 169.2,71.8 169.2,74.1 164.6,74.1 160.1,78.7 157.7,78.7    155.5,80.9 153.3,80.9 150.9,80.9 141.9,92.3 135,99.1 130.4,103.7 130.4,106 130.4,108.2 128.2,112.8 123.6,119.6 119,121.8    116.8,121.8 116.8,119.6 112.2,117.4 105.4,117.4 107.6,115 105.4,112.8 103.1,103.7 103.1,99.1 103.1,96.9  ">
	</polygon>
	<polygon
   id="Aguas_Buenas"
   inkscape:label="Aguas Buenas"
   class="st0"
   points="893.9,215.3 898.5,215.3 900.7,215.3 903.1,212.9    905.3,212.9 916.8,215.3 937.2,212.9 944.1,215.3 946.3,217.5 948.7,215.3 953.3,212.9 957.9,203.9 960.1,203.9 969.1,199.5    971.5,201.7 973.7,199.5 976,199.5 980.6,194.9 978.3,199.5 978.3,201.7 976,212.9 973.7,224.4 971.5,231.2 971.5,240.4    966.9,249.4 964.7,251.7 957.9,260.9 953.3,265.5 950.9,267.7 946.3,269.9 939.6,274.5 937.2,274.5 932.6,276.7 923.6,283.6    919,283.6 919,274.5 919,263.1 919,258.7 916.8,256.3 914.5,258.7 912.2,260.9 907.7,263.1 907.7,265.5 905.3,265.5 903.1,265.5    898.5,260.9 891.7,256.3 889.5,251.7 889.5,244.8 882.6,235.8 880.3,233.6 884.9,224.4 887.2,222.1 889.5,222.1 891.7,217.5  ">
	</polygon>
	<polygon
   id="Aibonito"
   inkscape:label="Aibonito"
   class="st0"
   points="782.3,336.1 782.3,333.7 777.7,331.5 779.9,322.3    782.3,317.7 784.5,315.5 786.8,315.5 791.4,315.5 793.8,313.3 793.8,311 798.2,311 809.6,304 814.2,304 818.8,304 827.9,306.4    827.9,311 834.7,311 832.5,306.4 834.7,304 839.3,299.4 855.2,311 850.7,317.7 853,320.1 850.7,322.3 857.6,324.7 857.6,329.1    859.8,329.1 859.8,333.7 859.8,336.1 857.6,338.3 855.2,338.3 855.2,342.8 857.6,349.8 855.2,349.8 850.7,352 853,361 853,370.2    848.3,370.2 843.9,370.2 841.5,372.5 841.5,374.7 841.5,377.1 841.5,379.3 839.3,386.1 832.5,386.1 825.7,386.1 825.7,379.3    823.3,379.3 823.3,377.1 816.4,377.1 812,372.5 812,370.2 796,361 784.5,349.8 775.5,342.8  ">
	</polygon>
	<polygon
   id="Arecibo"
   inkscape:label="Arecibo"
   class="st0"
   points="417.6,60.4 420,44.5 420,42.2 426.8,46.8 431.2,49 440.4,51.4    444.9,51.4 463.1,51.4 495.2,39.9 517.9,35.3 533.9,33.1 556.6,39.9 563.4,42.2 561.2,51.4 563.4,55.8 563.4,58.2 568,55.8    568,62.6 568,67.2 565.8,78.7 565.8,80.9 563.4,96.9 563.4,101.5 561.2,103.7 556.6,115 558.8,119.6 558.8,121.8 561.2,121.8    561.2,133.3 565.8,135.5 565.8,144.7 561.2,151.5 558.8,156.1 558.8,160.6 558.8,165.2 556.6,165.2 552.2,165.2 547.6,169.8    545.2,174.4 540.7,169.8 536.1,169.8 533.9,172 531.5,174.4 529.3,174.4 526.9,174.4 524.7,174.4 522.5,174.4 520.1,176.6    515.7,176.6 513.3,174.4 508.8,174.4 508.8,176.6 506.5,178.8 501.8,181.2 495.2,176.6 492.8,176.6 488.2,178.8 486,178.8    483.8,178.8 481.4,181.2 479.2,178.8 474.5,178.8 472.3,178.8 467.7,178.8 465.5,183.4 460.9,183.4 456.3,183.4 456.3,181.2    456.3,178.8 454.1,174.4 451.9,169.8 454.1,167.6 456.3,167.6 454.1,165.2 451.9,162.9 449.5,160.6 447.3,156.1 442.6,156.1    440.4,158.3 438.2,160.6 433.6,160.6 429,165.2 426.8,165.2 415.3,176.6 415.3,135.5 417.6,119.6 417.6,117.4 415.3,108.2    415.3,106 417.6,99.1 417.6,92.3 417.6,90.1 417.6,87.7 415.3,85.5 415.3,83.3 415.3,80.9 417.6,76.5 417.6,74.1 417.6,65  ">
	</polygon>
	<polygon
   id="Arroyo"
   inkscape:label="Arroyo"
   class="st0"
   points="1014.9,458.9 1014.9,461.3 1014.9,463.6 1017.1,468.2    1010.3,475 1007.9,477.2 1005.6,481.8 998.8,486.2 994.2,490.9 994.2,488.6 982.8,481.8 978.3,479.4 976,468.2 976,461.3    976,454.3 971.5,449.9 960.1,434 957.9,431.7 957.9,429.4 960.1,429.4 962.3,429.4 966.9,427.2 966.9,422.6 969.1,420.2 973.7,418    987.4,415.8 994.2,420.2 998.8,424.8 998.8,427.2 998.8,431.7 998.8,434 1001,436.3 996.6,443.1 998.8,445.3 1001,447.7    1005.6,452.1 1012.5,454.3 1012.5,456.7  ">
	</polygon>
	<polygon
   id="Anasco"
   inkscape:label="Anasco"
   class="st0"
   points="68.8,201.7 66.6,201.7 62,199.5 48.4,197.1 50.6,192.5    53,190.2 62,190.2 68.8,185.6 71.1,185.6 73.5,188 75.7,188 82.5,185.6 84.9,185.6 82.5,183.4 84.9,183.4 87.1,183.4 91.7,181.2    91.7,178.8 98.5,183.4 100.8,183.4 100.8,181.2 103.1,178.8 107.6,178.8 110,176.6 121.2,181.2 125.8,181.2 128.2,178.8    132.7,176.6 139.5,178.8 148.7,181.2 160.1,183.4 166.9,185.6 173.8,185.6 180.6,185.6 187.4,190.2 198.9,194.9 201.1,203.9    196.5,210.7 198.9,219.8 194.2,219.8 189.6,224.4 187.4,224.4 185.2,224.4 182.8,222.1 180.6,219.8 178.2,229 176,231.2    166.9,231.2 164.6,233.6 160.1,238 157.7,238 155.5,238 153.3,238 148.7,235.8 144.1,235.8 139.5,240.4 130.4,242.6 121.2,240.4    121.2,229 121.2,224.4 110,219.8 100.8,217.5 98.5,219.8 96.1,219.8 89.3,222.1 84.9,222.1 80.3,224.4 78.1,219.8 78.1,212.9    75.7,208.5 73.5,203.9 71.1,201.7  ">
	</polygon>
	<polygon
   id="polygon3149_1_"
   class="st0"
   points="611.4,92.3 609,92.3 604.6,94.5 597.7,96.9 597.7,99.1 597.7,101.5 597.7,103.7    597.7,106 597.7,108.2 597.7,110.6 590.9,108.2 590.9,103.7 579.5,101.5 574.9,103.7 570.3,108.2 565.8,121.8 561.2,121.8    558.8,121.8 558.8,119.6 556.6,115 561.2,103.7 563.4,101.5 563.4,96.9 565.8,80.9 565.8,78.7 568,67.2 568,62.6 568,55.8    563.4,58.2 563.4,55.8 561.2,51.4 563.4,42.2 572.6,42.2 579.5,42.2 581.7,39.9 593.1,39.9 606.8,42.2 604.6,46.8 604.6,49    606.8,51.4 609,53.6 609,58.2 606.8,60.4 606.8,62.6 602.2,65 602.2,67.2 602.2,69.6 606.8,65 609,65 611.4,67.2 606.8,71.8    602.2,74.1 599.9,76.5 602.2,83.3 604.6,85.5 606.8,85.5 611.4,87.7  "
   inkscape:label="Barceloneta" />
	<polygon
   id="Barranquitas"
   inkscape:label="Barranquitas"
   class="st0"
   points="775.5,311 770.9,311 768.7,308.6 759.5,308.6    754.9,308.6 752.6,311 750.4,311 741.2,306.4 739,304 734.4,301.8 739,295 739,286 739,283.6 741.2,281.3 743.6,281.3 743.6,283.6    745.8,283.6 748.2,288.2 750.4,286 752.6,276.7 750.4,267.7 750.4,260.9 752.6,260.9 752.6,258.7 750.4,254.1 752.6,247.2    759.5,249.4 764.1,249.4 770.9,244.8 770.9,242.6 777.7,240.4 782.3,240.4 786.8,247.2 796,242.6 798.2,242.6 800.6,242.6    809.6,244.8 818.8,242.6 818.8,247.2 821,254.1 816.4,265.5 816.4,267.7 816.4,269.9 821,276.7 821,286 821,295 827.9,297.4    827.9,295 830.1,292.8 832.5,290.4 834.7,288.2 836.9,288.2 839.3,288.2 839.3,295 836.9,295 836.9,297.4 839.3,299.4 834.7,304    832.5,306.4 834.7,311 827.9,311 827.9,306.4 818.8,304 814.2,304 809.6,304 798.2,311 793.8,311 793.8,313.3 793.8,315.5    791.4,315.5 786.8,315.5 784.5,315.5 782.3,317.7 779.9,322.3 773.3,317.7  ">
	</polygon>
	<polygon
   id="Bayamon"
   inkscape:label="Bayamon"
   class="st0"
   points="928.2,96.9 930.4,96.9 932.6,99.1 935,99.1 937.2,101.5    935,101.5 935,103.7 932.6,106 932.6,108.2 932.6,117.4 937.2,131 935,133.3 925.8,128.7 923.6,131 923.6,133.3 925.8,137.9    919,144.7 919,146.9 919,149.3 921.4,151.5 923.6,156.1 923.6,158.3 925.8,162.9 925.8,167.6 919,174.4 919,176.6 919,181.2    921.4,183.4 928.2,185.6 928.2,188 925.8,188 919,190.2 921.4,197.1 923.6,199.5 919,215.3 905.3,212.9 903.1,212.9 900.7,215.3    898.5,215.3 893.9,215.3 891.7,217.5 889.5,222.1 887.2,222.1 884.9,224.4 880.3,233.6 878,224.4 873.4,222.1 873.4,219.8    871.2,217.5 868.8,217.5 866.6,212.9 866.6,210.7 864.4,203.9 862,192.5 866.6,192.5 868.8,192.5 868.8,183.4 871.2,174.4    868.8,167.6 873.4,165.2 873.4,158.3 873.4,151.5 875.6,146.9 875.6,144.7 875.6,142.5 873.4,140.1 873.4,135.5 875.6,121.8    875.6,117.4 875.6,112.8 875.6,110.6 875.6,106 875.6,101.5 880.3,99.1 882.6,96.9 884.9,94.5 887.2,94.5 889.5,96.9 893.9,96.9    896.3,96.9 896.3,92.3 896.3,90.1 896.3,87.7 898.5,87.7 900.7,87.7 903.1,90.1 905.3,92.3 905.3,94.5 907.7,96.9 909.9,94.5    912.2,94.5 914.5,94.5 921.4,94.5 923.6,94.5 928.2,92.3  ">
	</polygon>
	<polygon
   id="Cabo_Rojo"
   inkscape:label="Cabo Rojo"
   class="st0"
   points="146.3,386.1 148.7,386.1 150.9,388.3 150.9,390.7    148.7,390.7 148.7,390.7 146.3,392.9 144.1,395.3 141.9,399.7 137.3,409 137.3,411.2 139.5,413.4 137.3,420.2 137.3,427.2    139.5,431.7 139.5,436.3 141.9,449.9 139.5,465.8 141.9,465.8 141.9,468.2 146.3,468.2 146.3,472.6 144.1,475 141.9,477.2    144.1,484 141.9,488.6 139.5,490.9 139.5,493.2 137.3,493.2 130.4,493.2 125.8,490.9 105.4,486.2 100.8,481.8 98.5,479.4    93.9,479.4 91.7,477.2 89.3,477.2 87.1,477.2 84.9,477.2 80.3,479.4 75.7,484 73.5,490.9 75.7,493.2 75.7,497.7 80.3,497.7    80.3,500.1 82.5,502.3 80.3,504.5 78.1,504.5 78.1,502.3 75.7,502.3 75.7,504.5 73.5,504.5 71.1,504.5 71.1,502.3 71.1,500.1    73.5,500.1 73.5,497.7 73.5,493.2 71.1,488.6 68.8,486.2 64.2,486.2 57.4,488.6 57.4,486.2 57.4,479.4 55.2,461.3 57.4,456.7    59.8,449.9 62,447.7 64.2,447.7 68.8,445.3 80.3,440.9 82.5,440.9 87.1,440.9 84.9,440.9 82.5,440.9 82.5,443.1 84.9,443.1    89.3,443.1 91.7,440.9 93.9,443.1 96.1,440.9 93.9,438.5 96.1,431.7 93.9,431.7 93.9,434 91.7,436.3 89.3,440.9 87.1,438.5    89.3,438.5 89.3,436.3 91.7,429.4 89.3,427.2 87.1,424.8 66.6,418 62,418 59.8,418 64.2,413.4 66.6,411.2 68.8,409 68.8,406.6    66.6,402.1 66.6,399.7 68.8,397.5 71.1,390.7 73.5,392.9 75.7,392.9 78.1,392.9 80.3,390.7 80.3,388.3 80.3,386.1 78.1,383.9    73.5,379.3 71.1,381.5 73.5,386.1 71.1,386.1 68.8,381.5 68.8,370.2 75.7,363.2 80.3,361 82.5,356.4 80.3,340.5 80.3,333.7    80.3,331.5 82.5,331.5 84.9,329.1 84.9,326.9 87.1,320.1 80.3,308.6 84.9,306.4 87.1,308.6 89.3,308.6 91.7,311 91.7,313.3    96.1,317.7 98.5,317.7 100.8,320.1 105.4,322.3 107.6,326.9 114.4,329.1 116.8,333.7 119,336.1 119,340.5 121.2,342.8 121.2,345.2    123.6,347.4 125.8,347.4 128.2,347.4 128.2,349.8 130.4,352 148.7,358.8 144.1,372.5 144.1,374.7 144.1,381.5 144.1,386.1  ">
	</polygon>
	<polygon
   id="Caguas"
   inkscape:label="Caguas"
   class="st0"
   points="976,212.9 978.3,201.7 978.3,199.5 980.6,194.9 992,194.9    994.2,199.5 996.6,199.5 996.6,194.9 994.2,192.5 996.6,190.2 996.6,188 998.8,188 1001,188 1003.4,190.2 1005.6,190.2    1007.9,190.2 1010.3,190.2 1017.1,192.5 1014.9,194.9 1012.5,194.9 1010.3,194.9 1007.9,197.1 1010.3,206.1 1010.3,208.5    1012.5,208.5 1019.3,212.9 1026.1,217.5 1026.1,222.1 1028.5,226.6 1021.7,226.6 1021.7,229 1021.7,231.2 1023.9,240.4    1021.7,242.6 1021.7,244.8 1023.9,247.2 1026.1,249.4 1026.1,254.1 1023.9,256.3 1023.9,258.7 1021.7,258.7 1021.7,260.9    1023.9,263.1 1026.1,263.1 1032.9,265.5 1032.9,267.7 1035.3,276.7 1032.9,283.6 1032.9,286 1035.3,288.2 1035.3,290.4    1032.9,290.4 1030.7,292.8 1023.9,297.4 1017.1,308.6 1014.9,311 1014.9,313.3 1014.9,320.1 1017.1,326.9 1017.1,329.1    1014.9,336.1 1012.5,338.3 1007.9,340.5 1007.9,342.8 1007.9,345.2 1005.6,349.8 1003.4,352 1001,352 998.8,354.4 992,354.4    989.6,354.4 987.4,354.4 987.4,352 985.2,349.8 985.2,347.4 982.8,345.2 982.8,342.8 980.6,340.5 978.3,331.5 978.3,329.1    980.6,326.9 980.6,324.7 976,324.7 969.1,322.3 962.3,315.5 957.9,308.6 953.3,306.4 950.9,306.4 948.7,306.4 950.9,297.4    946.3,281.3 939.6,274.5 946.3,269.9 950.9,267.7 953.3,265.5 957.9,260.9 964.7,251.7 966.9,249.4 971.5,240.4 971.5,231.2    973.7,224.4  ">
	</polygon>
	<polygon
   id="Camuy"
   inkscape:label="Camuy"
   class="st0"
   points="310.4,106 310.4,96.9 310.4,83.3 310.4,74.1 310.4,62.6    310.4,55.8 310.4,42.2 319.6,39.9 324.2,37.6 328.7,37.6 337.9,35.3 349.2,37.6 356.1,37.6 358.4,39.9 363,39.9 360.6,42.2    360.6,44.5 363,51.4 369.8,65 372,71.8 369.8,80.9 372,101.5 374.2,108.2 376.6,117.4 378.8,119.6 383.4,124.2 378.8,142.5    376.6,151.5 372,160.6 367.4,158.3 353.8,153.7 340.1,149.3 328.7,149.3 326.5,144.7 324.2,142.5 324.2,140.1 321.9,140.1    317.3,140.1 312.8,140.1 310.4,128.7 310.4,124.2 312.8,115 310.4,108.2  ">
	</polygon>
	<polygon
   id="Canovanas"
   inkscape:label="Canovanas"
   class="st0"
   points="1106,172 1108.2,169.8 1108.2,160.6 1103.6,160.6    1101.4,162.9 1101.4,160.6 1099.1,160.6 1099.1,158.3 1101.4,153.7 1099.1,149.3 1099.1,146.9 1099.1,144.7 1099.1,137.9    1099.1,135.5 1101.4,133.3 1103.6,131 1101.4,128.7 1096.7,124.2 1089.9,124.2 1087.7,119.6 1089.9,117.4 1099.1,112.8 1106,112.8    1112.8,101.5 1137.9,106 1133.3,131 1140.1,131 1140.1,133.3 1137.9,133.3 1135.6,135.5 1135.6,137.9 1135.6,140.1 1135.6,142.5    1133.3,142.5 1133.3,144.7 1133.3,146.9 1133.3,151.5 1133.3,153.7 1133.3,158.3 1135.6,162.9 1135.6,167.6 1140.1,169.8    1140.1,172 1144.7,178.8 1142.5,183.4 1137.9,183.4 1137.9,188 1137.9,190.2 1142.5,190.2 1142.5,194.9 1144.7,194.9 1142.5,199.5    1140.1,199.5 1140.1,201.7 1142.5,201.7 1144.7,203.9 1149.3,208.5 1151.5,210.7 1156.1,212.9 1160.6,215.3 1162.9,217.5    1165.2,217.5 1162.9,219.8 1162.9,222.1 1162.9,226.6 1160.6,226.6 1156.1,233.6 1151.5,235.8 1144.7,233.6 1140.1,235.8    1137.9,238 1135.6,238 1128.7,233.6 1124.2,231.2 1121.8,229 1119.6,229 1117.4,231.2 1110.6,229 1106,226.6 1101.4,224.4    1101.4,222.1 1106,222.1 1108.2,219.8 1106,212.9 1106,210.7 1101.4,203.9 1101.4,201.7 1103.6,201.7 1106,201.7 1108.2,199.5    1106,194.9 1106,192.5 1108.2,190.2 1110.6,190.2 1112.8,183.4 1110.6,181.2 1108.2,178.8 1106,178.8 1106,176.6 1106,174.4  ">
	</polygon>
	<polygon
   id="Carolina"
   inkscape:label="Carolina"
   class="st0"
   points="1032.9,106 1026.1,103.7 1017.1,96.9 1010.3,92.3    1010.3,90.1 1007.9,87.7 1007.9,83.3 1003.4,80.9 1001,78.7 998.8,76.5 1003.4,71.8 1007.9,74.1 1010.3,76.5 1014.9,76.5    1017.1,76.5 1023.9,76.5 1028.5,76.5 1032.9,74.1 1035.3,71.8 1037.5,69.6 1037.5,67.2 1039.8,65 1046.6,71.8 1044.4,74.1    1044.4,76.5 1046.6,78.7 1049,78.7 1055.8,80.9 1058,83.3 1060.4,85.5 1060.4,87.7 1060.4,85.5 1067.2,85.5 1074.1,83.3    1083.1,87.7 1087.7,94.5 1096.7,103.7 1099.1,112.8 1089.9,117.4 1087.7,119.6 1089.9,124.2 1096.7,124.2 1101.4,128.7 1103.6,131    1101.4,133.3 1099.1,135.5 1099.1,137.9 1099.1,144.7 1099.1,146.9 1099.1,149.3 1101.4,153.7 1099.1,158.3 1099.1,160.6    1101.4,160.6 1101.4,162.9 1103.6,160.6 1108.2,160.6 1108.2,169.8 1106,174.4 1106,176.6 1106,178.8 1108.2,178.8 1110.6,181.2    1112.8,183.4 1110.6,190.2 1108.2,190.2 1106,192.5 1106,194.9 1108.2,199.5 1106,201.7 1103.6,201.7 1101.4,201.7 1101.4,203.9    1106,210.7 1106,212.9 1108.2,219.8 1106,222.1 1101.4,222.1 1101.4,224.4 1099.1,222.1 1096.7,222.1 1089.9,217.5 1087.7,215.3    1083.1,208.5 1080.9,203.9 1083.1,190.2 1080.9,188 1069.5,183.4 1064.8,178.8 1062.6,176.6 1060.4,172 1058,167.6 1053.6,153.7    1042.2,142.5 1039.8,133.3 1032.9,131 1030.7,126.4 1030.7,117.4 1039.8,115 1039.8,112.8 1039.8,108.2  ">
	</polygon>
	<polygon
   id="Catano"
   inkscape:label="Catano"
   class="st0"
   points="909.9,76.5 912.2,74.1 914.5,71.8 914.5,69.6 916.8,67.2    923.6,62.6 923.6,65 923.6,67.2 923.6,69.6 925.8,74.1 928.2,76.5 932.6,78.7 935,78.7 937.2,78.7 939.6,78.7 941.8,76.5    944.1,76.5 944.1,80.9 941.8,78.7 941.8,80.9 939.6,80.9 935,85.5 928.2,92.3 923.6,94.5 921.4,94.5 914.5,94.5 912.2,94.5    909.9,94.5 907.7,96.9 905.3,94.5 905.3,92.3 903.1,90.1 900.7,87.7 898.5,87.7 896.3,85.5 896.3,83.3 898.5,83.3 900.7,83.3    900.7,80.9 903.1,78.7 903.1,76.5  ">
	</polygon>
	<polygon
   id="Cayey"
   inkscape:label="Cayey"
   class="st0"
   points="893.9,338.3 903.1,333.7 903.1,326.9 925.8,336.1 930.4,331.5    939.6,331.5 946.3,326.9 955.5,320.1 957.9,308.6 962.3,315.5 969.1,322.3 976,324.7 980.6,324.7 980.6,326.9 978.3,329.1    978.3,331.5 980.6,340.5 982.8,342.8 982.8,345.2 985.2,347.4 985.2,349.8 987.4,352 987.4,354.4 989.6,354.4 992,354.4 992,356.4    992,358.8 985.2,363.2 982.8,363.2 978.3,363.2 976,363.2 971.5,363.2 966.9,363.2 962.3,358.8 957.9,361 955.5,361 953.3,361    950.9,361 946.3,365.6 944.1,374.7 932.6,367.8 930.4,367.8 930.4,370.2 930.4,374.7 932.6,381.5 932.6,383.9 932.6,386.1    932.6,388.3 935,388.3 937.2,390.7 937.2,397.5 935,402.1 935,404.4 932.6,404.4 930.4,409 930.4,415.8 930.4,418 928.2,418    925.8,418 921.4,418 919,415.8 916.8,415.8 912.2,415.8 909.9,413.4 907.7,413.4 907.7,409 900.7,409 893.9,404.4 889.5,404.4    889.5,406.6 878,409 873.4,411.2 871.2,411.2 868.8,404.4 871.2,402.1 871.2,397.5 871.2,395.3 871.2,392.9 866.6,390.7    859.8,383.9 859.8,381.5 859.8,377.1 859.8,374.7 857.6,372.5 857.6,370.2 853,370.2 853,361 850.7,352 855.2,349.8 857.6,349.8    855.2,342.8 855.2,338.3 857.6,338.3 859.8,336.1 859.8,333.7 859.8,329.1 864.4,331.5 871.2,331.5 875.6,336.1 887.2,331.5  ">
	</polygon>
	<polygon
   id="Ceiba"
   inkscape:label="Ceiba"
   class="st0"
   points="1324.7,210.7 1324.7,210.7 1327.1,210.7 1329.3,212.9    1331.5,212.9 1333.9,210.7 1336.1,212.9 1336.1,215.3 1336.1,217.5 1333.9,215.3 1331.5,217.5 1329.3,224.4 1329.3,226.6    1331.5,229 1331.5,231.2 1333.9,233.6 1338.5,235.8 1342.9,235.8 1345.3,233.6 1345.3,231.2 1349.8,229 1349.8,231.2 1349.8,233.6    1347.5,233.6 1347.5,238 1349.8,240.4 1352.1,244.8 1352.1,249.4 1354.4,251.7 1361.2,254.1 1363.6,256.3 1361.2,260.9 1359,260.9    1354.4,256.3 1352.1,256.3 1349.8,258.7 1349.8,260.9 1352.1,263.1 1352.1,267.7 1349.8,269.9 1347.5,272.3 1345.3,272.3    1345.3,269.9 1345.3,267.7 1345.3,265.5 1342.9,258.7 1336.1,254.1 1331.5,251.7 1329.3,251.7 1324.7,256.3 1322.5,256.3    1324.7,260.9 1329.3,267.7 1331.5,274.5 1333.9,274.5 1331.5,276.7 1329.3,281.3 1327.1,281.3 1320.2,283.6 1313.4,281.3    1311,276.7 1308.8,276.7 1306.6,276.7 1306.6,274.5 1304.2,269.9 1306.6,267.7 1308.8,263.1 1308.8,260.9 1304.2,260.9 1302,260.9    1299.6,263.1 1297.4,260.9 1290.6,258.7 1286,256.3 1283.7,254.1 1283.7,251.7 1281.3,249.4 1279.1,249.4 1281.3,247.2    1283.7,244.8 1286,242.6 1288.3,242.6 1288.3,240.4 1288.3,238 1288.3,235.8 1286,235.8 1283.7,238 1279.1,238 1279.1,235.8    1276.9,233.6 1274.5,233.6 1272.3,231.2 1270.1,233.6 1267.7,233.6 1265.5,235.8 1260.9,233.6 1258.7,233.6 1256.4,233.6    1256.4,235.8 1258.7,235.8 1258.7,238 1256.4,238 1249.6,235.8 1245,233.6 1245,231.2 1242.6,231.2 1240.4,229 1235.8,229    1233.6,229 1231.4,226.6 1229,224.4 1224.4,222.1 1224.4,217.5 1222.1,215.3 1219.9,215.3 1222.1,210.7 1222.1,208.5 1224.4,206.1    1226.8,206.1 1229,203.9 1231.4,201.7 1231.4,199.5 1233.6,201.7 1240.4,206.1 1242.6,208.5 1245,212.9 1242.6,215.3 1245,217.5    1245,219.8 1247.2,217.5 1251.8,222.1 1258.7,224.4 1260.9,224.4 1272.3,222.1 1274.5,219.8 1272.3,217.5 1279.1,208.5    1279.1,210.7 1281.3,210.7 1283.7,215.3 1286,215.3 1288.3,217.5 1290.6,217.5 1290.6,219.8 1295.2,215.3 1295.2,210.7    1297.4,210.7 1299.6,210.7 1302,206.1 1304.2,208.5 1311,210.7 1317.9,212.9  "
   style="stroke-width:1.91999993;stroke-dasharray:none">
	</polygon>
	<polygon
   id="Ciales"
   inkscape:label="Ciales"
   class="st0"
   points="586.3,217.5 588.5,212.9 583.9,201.7 577.1,199.5 572.6,190.2    565.8,185.6 565.8,183.4 563.4,181.2 563.4,178.8 556.6,176.6 543,178.8 545.2,174.4 547.6,169.8 552.2,165.2 556.6,165.2    558.8,165.2 572.6,162.9 572.6,160.6 583.9,162.9 590.9,162.9 602.2,156.1 604.6,153.7 606.8,156.1 609,156.1 613.6,151.5    618.2,146.9 622.8,144.7 634.2,142.5 638.7,142.5 650.1,142.5 654.7,140.1 659.1,137.9 661.5,137.9 661.5,146.9 659.1,153.7    661.5,156.1 663.8,160.6 668.4,169.8 668.4,174.4 668.4,185.6 668.4,197.1 666,197.1 663.8,197.1 659.1,210.7 661.5,212.9    663.8,212.9 663.8,215.3 663.8,217.5 663.8,222.1 666,231.2 666,233.6 668.4,233.6 668.4,235.8 668.4,238 661.5,242.6 659.1,242.6    656.9,242.6 652.3,240.4 650.1,238 645.5,238 643.3,238 638.7,238 634.2,238 631.8,233.6 629.6,233.6 625,240.4 622.8,244.8    625,251.7 625,256.3 620.4,256.3 618.2,256.3 618.2,258.7 618.2,260.9 620.4,267.7 622.8,272.3 622.8,281.3 622.8,283.6    620.4,288.2 622.8,299.4 622.8,301.8 622.8,308.6 620.4,311 615.8,311 613.6,313.3 609,317.7 599.9,315.5 597.7,313.3 597.7,308.6    599.9,301.8 604.6,301.8 606.8,297.4 602.2,292.8 604.6,283.6 602.2,269.9 593.1,263.1 588.5,256.3 586.3,249.4 581.7,247.2    579.5,244.8 581.7,240.4 581.7,235.8 586.3,235.8 586.3,222.1 583.9,217.5  ">
	</polygon>
	<polygon
   id="Cidra"
   inkscape:label="Cidra"
   class="st0"
   points="946.3,281.3 950.9,297.4 948.7,306.4 950.9,306.4 953.3,306.4    957.9,308.6 955.5,320.1 946.3,326.9 939.6,331.5 930.4,331.5 925.8,336.1 903.1,326.9 903.1,333.7 893.9,338.3 887.2,331.5    878,336.1 871.2,331.5 864.4,331.5 859.8,329.1 857.6,329.1 857.6,324.7 850.7,322.3 853,320.1 850.7,317.7 855.2,311 839.3,299.4    836.9,297.4 836.9,295 839.3,295 848.3,295 848.3,297.4 850.7,299.4 853,301.8 862,304 864.4,304 862,295 862,292.8 866.6,288.2    866.6,283.6 873.4,283.6 875.6,283.6 884.9,281.3 884.9,276.7 889.5,272.3 896.3,267.7 898.5,260.9 903.1,265.5 905.3,265.5    907.7,265.5 907.7,263.1 912.2,260.9 914.5,258.7 916.8,256.3 919,258.7 919,263.1 919,274.5 919,283.6 923.6,283.6 932.6,276.7    937.2,274.5 939.6,274.5  ">
	</polygon>
	<polygon
   id="Coamo"
   inkscape:label="Coamo"
   class="st0"
   points="796,361 812,370.2 812,372.5 816.4,377.1 823.3,377.1 823.3,379.3    825.7,379.3 825.7,386.1 825.7,388.3 818.8,390.7 816.4,392.9 814.2,392.9 809.6,390.7 807.4,392.9 805,397.5 805,399.7    793.8,402.1 789.1,406.6 784.5,409 782.3,413.4 782.3,422.6 779.9,424.8 777.7,424.8 766.3,438.5 764.1,431.7 759.5,431.7    754.9,429.4 752.6,427.2 750.4,422.6 748.2,418 736.8,422.6 734.4,422.6 729.9,420.2 723,415.8 720.7,415.8 716.1,418 691,413.4    691,406.6 693.4,406.6 686.6,395.3 688.8,395.3 688.8,388.3 686.6,381.5 686.6,377.1 688.8,372.5 695.7,367.8 686.6,352    693.4,338.3 695.7,336.1 695.7,326.9 688.8,317.7 688.8,313.3 688.8,311 679.8,304 677.4,301.8 675.2,301.8 679.8,301.8    684.2,301.8 693.4,306.4 693.4,308.6 695.7,311 697.9,311 700.3,313.3 704.9,313.3 707.1,311 711.7,311 716.1,311 718.5,311    720.7,304 729.9,304 732.2,301.8 734.4,301.8 739,304 741.2,306.4 750.4,311 752.6,311 754.9,308.6 757.2,308.6 759.5,308.6    768.7,308.6 770.9,311 775.5,311 773.3,317.7 779.9,322.3 777.7,331.5 782.3,333.7 782.3,336.1 775.5,342.8 784.5,349.8  ">
	</polygon>
	<polygon
   id="Comerio"
   inkscape:label="Comerio"
   class="st0"
   points="821,295 821,286 821,276.7 816.4,269.9 816.4,267.7    816.4,265.5 821,254.1 818.8,247.2 818.8,242.6 823.3,242.6 827.9,242.6 834.7,240.4 836.9,240.4 839.3,235.8 843.9,235.8    850.7,235.8 853,226.6 857.6,219.8 868.8,217.5 871.2,217.5 873.4,219.8 873.4,222.1 878,224.4 880.3,233.6 882.6,235.8    889.5,244.8 889.5,251.7 891.7,256.3 898.5,260.9 896.3,267.7 889.5,272.3 884.9,276.7 884.9,281.3 875.6,283.6 873.4,283.6    866.6,283.6 866.6,288.2 862,292.8 862,295 864.4,304 862,304 853,301.8 850.7,299.4 848.3,297.4 848.3,295 839.3,295 839.3,288.2    836.9,288.2 834.7,288.2 832.5,290.4 830.1,292.8 827.9,295 827.9,297.4  ">
	</polygon>
	<polygon
   id="Corozal"
   inkscape:label="Corozal"
   class="st0"
   points="770.9,242.6 770.9,244.8 764.1,249.4 759.5,249.4 752.6,247.2    750.4,247.2 745.8,242.6 743.6,233.6 741.2,231.2 734.4,224.4 732.2,219.8 729.9,219.8 725.3,219.8 725.3,217.5 725.3,215.3    727.6,212.9 727.6,210.7 729.9,210.7 729.9,208.5 729.9,203.9 729.9,201.7 732.2,199.5 734.4,197.1 734.4,194.9 734.4,190.2    734.4,188 736.8,178.8 739,172 741.2,169.8 745.8,172 745.8,167.6 745.8,162.9 745.8,160.6 748.2,160.6 748.2,158.3 750.4,158.3    750.4,156.1 752.6,156.1 752.6,153.7 748.2,151.5 748.2,146.9 750.4,146.9 752.6,146.9 754.9,146.9 757.2,149.3 759.5,149.3    759.5,146.9 759.5,144.7 761.7,142.5 761.7,140.1 766.3,140.1 768.7,140.1 777.7,140.1 779.9,142.5 782.3,144.7 784.5,144.7    786.8,142.5 789.1,140.1 789.1,142.5 796,146.9 798.2,149.3 800.6,151.5 802.8,153.7 802.8,156.1 805,158.3 805,160.6 809.6,172    805,194.9 802.8,203.9 802.8,219.8 798.2,231.2 786.8,238 782.3,240.4 777.7,240.4  ">
	</polygon><path
   id="Culebra"
   style="enable-background:new 0 0 1671.8 524.4;fill:#ebebeb;fill-opacity:1;stroke-width:1.51181102;stroke-dasharray:none;stroke:#cccccc;stroke-opacity:1"
   class="st1"
   d="m 1509.4999,162.99999 c -0.5573,2.32975 -2.7612,1.09802 -3.6618,1.76042 2.8031,2.23924 3.9689,5.88599 6.0635,8.78332 1.0491,2.86175 3.3032,5.34415 4.0859,8.24866 -0.043,1.44919 -1.211,3.66692 1.1819,2.09183 3.176,0.31401 4.3937,3.5839 7.4115,4.13287 1.5608,3.0753 0.884,6.88528 4.0673,8.9313 1.5871,1.90252 1.0026,4.90933 4.2535,3.65121 1.7948,0.28356 6.2752,-0.44133 3.6039,2.03388 1.014,1.96185 0.7841,4.63937 3.6052,4.75511 2.8018,2.51362 3.4104,6.71331 6.734,8.75811 1.8199,0.57207 0.5779,5.47316 2.7548,2.15407 0.947,-1.17468 -2.5721,-3.50993 0.7457,-3.29226 2.05,-0.48688 -1.2454,-3.1041 1.3599,-3.86839 0.122,-2.42727 -1.3057,-4.90055 -3.6338,-2.64392 -4.2505,1.33063 2.8078,-5.52328 -2.0635,-6.16469 -2.5749,-2.41015 -7.2033,-0.37328 -9.0242,-3.78193 -1.5142,-2.20578 -0.6258,-5.92522 2.5339,-3.86463 1.8969,0.31395 5.7576,2.80175 4.2398,-0.95231 1.5877,-0.23564 2.7097,3.99941 5.4417,2.37702 0.3123,1.50706 3.5386,1.67174 2.796,-0.008 1.2981,0.66923 5.1229,1.54267 1.7857,2.61719 -3.0908,0.72471 -0.3745,3.27832 1.224,2.68736 -1.1744,3.96386 3.1819,5.40672 5.7488,3.04036 4.17,-1.41844 4.0588,3.01843 4.5518,5.58654 2.4119,0.26882 2.9893,-3.33621 5.3012,-3.07215 -1.5537,-1.79842 -1.5564,-4.31837 0.1475,-5.33528 -1.1951,-1.71604 -4.238,-4.61654 -1.545,-6.52604 1.5784,2.96068 5.7129,2.05379 8.1905,4.30504 2.4594,-1.50478 1.0186,-6.48345 -1.2755,-8.00678 -1.999,-3.13359 -4.3498,-4.97785 -7.693,-6.54633 -2.907,-2.43576 -6.2468,-4.20175 -9.493,-6.09473 -2.3875,-1.7021 -4.6515,-2.41381 -6.9292,-0.36866 -3.646,1.5406 -6.3625,-2.30525 -8.2865,-3.80615 -1.0365,3.77313 -5.0968,4.60198 -8.1515,2.44664 -2.5877,-0.54634 -4.8232,-7.25104 -6.5146,-1.87641 0.3545,4.20426 -5.5144,6.1939 -6.9037,1.60022 -1.207,-4.20522 -6.2732,-3.11474 -8.3447,-6.33961 -1.7027,-2.18472 -2.9687,-5.53446 -4.308,-7.41284 z m 55.8008,4.59961 c -0.988,1.90318 -6.509,-0.23393 -3.7842,3.04359 2.9746,2.21991 5.8252,6.53307 10.0016,3.75719 1.2609,0 2.5217,0 3.7826,0 0.5655,-2.67915 -4.269,-1.67218 -4.3067,-4.58456 -1.6085,-1.49062 -4.2651,-1.68495 -5.6933,-2.21622 z m 23.5996,14.80078 c 1.5571,1.94484 0.6861,6.25516 -2.2817,3.54867 -1.3694,-2.36598 -7.7821,-1.60742 -3.6087,1.17535 3.9198,1.03763 3.8397,7.09746 8.731,5.4853 4.0006,-0.44831 -3.6784,-2.97074 -0.754,-5.35354 4.14,-2.39071 1.2922,-4.04381 -2.0866,-4.85578 z m -75.2011,6.79883 c -1.1278,2.9726 -4.1126,4.48907 -6.515,5.12645 3.3619,1.21118 -0.8388,7.05177 3.3695,5.83973 3.383,0.20619 1.1582,6.05459 4.5696,4.71844 -1.0762,-3.22022 0.4076,-6.29101 0.1774,-9.79561 -1.2488,-1.9095 -1.0202,-3.96761 -1.6015,-5.88901 z"
   inkscape:label="Culebra" />
	<polygon
   id="Dorado"
   inkscape:label="Dorado"
   class="st0"
   points="818.8,46.8 827.9,51.4 832.5,53.6 834.7,53.6 839.3,55.8    841.5,55.8 857.6,58.2 864.4,58.2 857.6,60.4 853,65 848.3,67.2 848.3,71.8 843.9,69.6 841.5,67.2 839.3,67.2 836.9,67.2    836.9,69.6 834.7,69.6 830.1,67.2 825.7,67.2 825.7,71.8 827.9,80.9 825.7,87.7 825.7,94.5 821,96.9 821,99.1 823.3,101.5    825.7,99.1 827.9,101.5 827.9,103.7 825.7,106 827.9,117.4 830.1,119.6 827.9,121.8 825.7,124.2 821,124.2 816.4,126.4    807.4,128.7 802.8,128.7 802.8,126.4 789.1,126.4 789.1,112.8 789.1,103.7 791.4,99.1 793.8,96.9 793.8,94.5 791.4,92.3    791.4,90.1 791.4,85.5 786.8,85.5 782.3,80.9 782.3,78.7 777.7,71.8 779.9,67.2 779.9,65 779.9,55.8 779.9,51.4 798.2,53.6    802.8,53.6 805,53.6 807.4,51.4 812,46.8 816.4,46.8  ">
	</polygon>
	
	<polygon
   id="Fajardo"
   inkscape:label="Fajardo"
   class="st0"
   points="1320.2,131 1322.5,133.3 1322.5,135.5 1322.5,137.9    1324.7,137.9 1327.1,137.9 1329.3,135.5 1333.9,128.7 1333.9,126.4 1336.1,128.7 1331.5,137.9 1333.9,137.9 1338.5,135.5    1340.7,135.5 1340.7,137.9 1338.5,140.1 1338.5,142.5 1336.1,142.5 1333.9,142.5 1333.9,144.7 1336.1,146.9 1333.9,149.3    1333.9,151.5 1331.5,153.7 1329.3,153.7 1324.7,158.3 1327.1,165.2 1329.3,167.6 1333.9,169.8 1333.9,172 1331.5,176.6    1331.5,183.4 1331.5,188 1333.9,190.2 1333.9,194.9 1333.9,197.1 1331.5,199.5 1327.1,203.9 1327.1,206.1 1327.1,208.5    1327.1,210.7 1324.7,210.7 1317.9,212.9 1311,210.7 1304.2,208.5 1302,206.1 1299.6,210.7 1297.4,210.7 1295.2,210.7 1295.2,215.3    1290.6,219.8 1290.6,217.5 1288.3,217.5 1286,215.3 1283.7,215.3 1281.3,210.7 1279.1,210.7 1279.1,208.5 1272.3,217.5    1274.5,219.8 1272.3,222.1 1260.9,224.4 1258.7,224.4 1251.8,222.1 1247.2,217.5 1245,219.8 1245,217.5 1242.6,215.3 1245,212.9    1242.6,208.5 1240.4,206.1 1233.6,201.7 1231.4,199.5 1233.6,197.1 1235.8,197.1 1240.4,197.1 1245,199.5 1247.2,208.5    1249.6,206.1 1251.8,206.1 1254,203.9 1254,201.7 1258.7,201.7 1258.7,197.1 1258.7,194.9 1258.7,192.5 1263.3,192.5 1265.5,192.5    1267.7,192.5 1270.1,190.2 1270.1,185.6 1270.1,183.4 1270.1,181.2 1272.3,181.2 1272.3,178.8 1274.5,178.8 1276.9,176.6    1279.1,176.6 1281.3,176.6 1286,178.8 1286,176.6 1286,172 1288.3,169.8 1290.6,162.9 1292.9,160.6 1290.6,160.6 1290.6,158.3    1299.6,144.7 1304.2,144.7 1308.8,144.7 1308.8,142.5 1311,142.5 1313.4,140.1 1315.6,137.9 1315.6,133.3 1317.9,128.7    1320.2,128.7  ">
	</polygon><polygon
   id="Florida"
   inkscape:label="Florida"
   class="st0"
   points="570.3,108.2 574.9,103.7 579.5,101.5 590.9,103.7 590.9,108.2    597.7,110.6 599.9,115 604.6,121.8 604.6,124.2 604.6,126.4 604.6,131 606.8,137.9 604.6,153.7 602.2,156.1 590.9,162.9    583.9,162.9 572.6,160.6 572.6,162.9 558.8,165.2 558.8,160.6 558.8,156.1 561.2,151.5 565.8,144.7 565.8,135.5 561.2,133.3    561.2,121.8 565.8,121.8  ">
	</polygon>
	<polygon
   id="Guayama"
   inkscape:label="Guayama"
   class="st0"
   points="928.2,495.5 916.8,502.3 909.9,509.1 905.3,509.1 896.3,504.5    893.9,502.3 873.4,509.1 871.2,509.1 866.6,504.5 862,500.1 862,495.5 871.2,495.5 882.6,500.1 893.9,495.5 891.7,493.2    889.5,490.9 884.9,490.9 882.6,488.6 878,486.2 875.6,484 871.2,481.8 868.8,481.8 868.8,468.2 868.8,463.6 868.8,452.1    868.8,440.9 868.8,438.5 873.4,434 875.6,431.7 882.6,429.4 893.9,422.6 900.7,409 907.7,409 907.7,413.4 909.9,413.4 912.2,415.8    916.8,415.8 919,415.8 921.4,418 925.8,418 928.2,418 930.4,418 930.4,415.8 930.4,409 932.6,404.4 935,404.4 935,402.1    937.2,397.5 937.2,390.7 935,388.3 932.6,388.3 932.6,386.1 932.6,383.9 932.6,381.5 930.4,374.7 930.4,370.2 930.4,367.8    932.6,367.8 944.1,374.7 946.3,365.6 950.9,361 953.3,361 955.5,361 957.9,361 962.3,358.8 966.9,363.2 971.5,363.2 976,363.2    978.3,363.2 982.8,363.2 985.2,363.2 992,358.8 985.2,367.8 985.2,370.2 985.2,374.7 982.8,377.1 982.8,379.3 980.6,381.5    978.3,383.9 973.7,386.1 969.1,386.1 969.1,388.3 969.1,390.7 969.1,395.3 964.7,397.5 962.3,402.1 964.7,409 964.7,413.4    964.7,418 964.7,420.2 966.9,422.6 966.9,427.2 962.3,429.4 960.1,429.4 957.9,429.4 957.9,431.7 960.1,434 971.5,449.9 976,454.3    976,461.3 976,468.2 978.3,479.4 973.7,477.2 969.1,477.2 962.3,481.8 955.5,484 950.9,488.6 948.7,490.9 944.1,493.2 941.8,493.2    935,493.2 930.4,495.5  ">
	</polygon>
	<polygon
   id="Guayanilla"
   inkscape:label="Guayanilla"
   class="st0"
   points="399.3,463.6 399.3,461.3 401.7,461.3 403.9,461.3    403.9,463.6 403.9,465.8 399.3,472.6 394.9,475 376.6,481.8 367.4,486.2 365.2,488.6 360.6,490.9 358.4,490.9 356.1,490.9    353.8,490.9 351.5,488.6 346.9,486.2 360.6,477.2 360.6,472.6 360.6,465.8 360.6,458.9 365.2,452.1 365.2,449.9 367.4,449.9    369.8,449.9 367.4,443.1 365.2,440.9 365.2,434 374.2,424.8 376.6,424.8 374.2,422.6 369.8,411.2 369.8,409 374.2,399.7    374.2,397.5 374.2,395.3 376.6,390.7 376.6,388.3 378.8,386.1 387.9,372.5 385.7,370.2 385.7,367.8 381.1,356.4 381.1,354.4    383.4,352 387.9,349.8 392.5,347.4 392.5,345.2 392.5,342.8 392.5,336.1 397.1,336.1 399.3,336.1 401.7,333.7 403.9,333.7    406.1,333.7 408.5,336.1 415.3,336.1 415.3,338.3 415.3,342.8 417.6,345.2 420,352 422.2,354.4 420,356.4 417.6,358.8 417.6,363.2    417.6,365.6 415.3,372.5 415.3,377.1 417.6,379.3 417.6,381.5 417.6,383.9 417.6,386.1 415.3,388.3 415.3,390.7 415.3,397.5    415.3,402.1 415.3,409 417.6,415.8 424.4,402.1 426.8,402.1 433.6,411.2 438.2,409 440.4,409 440.4,413.4 442.6,413.4 435.8,422.6    440.4,427.2 442.6,431.7 444.9,434 442.6,436.3 442.6,438.5 440.4,438.5 435.8,438.5 433.6,438.5 431.2,440.9 429,443.1    426.8,449.9 424.4,449.9 420,449.9 420,445.3 417.6,443.1 417.6,440.9 401.7,452.1 397.1,454.3 394.9,454.3 392.5,454.3    392.5,452.1 390.3,454.3 390.3,456.7 392.5,461.3 392.5,463.6 390.3,463.6 385.7,461.3 383.4,465.8 385.7,470.4 392.5,468.2    394.9,468.2 397.1,468.2 399.3,465.8  ">
	</polygon>
	<polygon
   id="Guaynabo"
   inkscape:label="Guaynabo"
   class="st0"
   points="925.8,188 928.2,188 928.2,185.6 921.4,183.4 919,181.2    919,176.6 919,174.4 925.8,167.6 925.8,162.9 923.6,158.3 923.6,156.1 921.4,151.5 919,149.3 919,146.9 919,144.7 925.8,137.9    923.6,133.3 923.6,131 925.8,128.7 935,133.3 937.2,131 932.6,117.4 932.6,108.2 932.6,106 935,103.7 935,101.5 937.2,101.5    935,99.1 932.6,99.1 930.4,96.9 928.2,96.9 928.2,92.3 935,85.5 939.6,80.9 941.8,80.9 941.8,78.7 944.1,80.9 944.1,83.3    944.1,90.1 946.3,90.1 948.7,92.3 953.3,96.9 955.5,99.1 957.9,110.6 957.9,112.8 955.5,112.8 948.7,112.8 946.3,112.8 946.3,115    946.3,124.2 948.7,128.7 950.9,131 957.9,133.3 960.1,137.9 962.3,149.3 962.3,151.5 957.9,151.5 955.5,153.7 955.5,156.1    953.3,162.9 955.5,165.2 964.7,169.8 962.3,176.6 962.3,181.2 962.3,183.4 966.9,190.2 966.9,194.9 964.7,197.1 969.1,199.5    960.1,203.9 957.9,203.9 953.3,212.9 948.7,215.3 946.3,217.5 944.1,215.3 937.2,212.9 919,215.3 923.6,199.5 921.4,197.1    919,190.2  ">
	</polygon>
	<polygon
   id="Gurabo"
   inkscape:label="Gurabo"
   class="st0"
   points="1060.4,194.9 1062.6,197.1 1071.7,201.7 1080.9,203.9    1083.1,208.5 1087.7,215.3 1092.3,217.5 1096.7,222.1 1099.1,222.1 1094.5,224.4 1092.3,224.4 1087.7,229 1085.3,231.2 1076.3,238    1074.1,244.8 1076.3,247.2 1078.7,249.4 1083.1,254.1 1080.9,254.1 1071.7,256.3 1064.8,256.3 1055.8,256.3 1049,263.1    1046.6,265.5 1044.4,265.5 1042.2,265.5 1042.2,267.7 1039.8,272.3 1035.3,276.7 1032.9,267.7 1032.9,265.5 1026.1,263.1    1023.9,263.1 1021.7,260.9 1021.7,258.7 1023.9,258.7 1023.9,256.3 1026.1,254.1 1026.1,249.4 1023.9,247.2 1021.7,244.8    1021.7,242.6 1023.9,240.4 1021.7,231.2 1021.7,229 1021.7,226.6 1028.5,226.6 1026.1,222.1 1026.1,217.5 1019.3,212.9    1012.5,208.5 1010.3,208.5 1010.3,206.1 1007.9,197.1 1010.3,194.9 1012.5,194.9 1014.9,194.9 1017.1,192.5 1019.3,190.2    1021.7,190.2 1026.1,194.9 1028.5,194.9 1035.3,192.5 1037.5,192.5 1044.4,188 1053.6,190.2 1058,190.2  ">
	</polygon>
	<polygon
   id="Guanica"
   inkscape:label="Guanica"
   class="st0"
   points="292.2,506.9 292.2,509.1 290,509.1 287.7,509.1 283.1,509.1    264.9,500.1 246.6,490.9 244.4,488.6 260.3,454.3 260.3,447.7 260.3,443.1 260.3,436.3 262.7,431.7 262.7,420.2 267.3,420.2    271.7,420.2 276.3,422.6 278.5,422.6 280.9,424.8 283.1,422.6 285.3,422.6 294.6,424.8 301.4,429.4 301.4,427.2 306,427.2    310.4,427.2 312.8,429.4 317.3,429.4 321.9,427.2 326.5,434 328.7,436.3 335.5,443.1 340.1,449.9 340.1,452.1 340.1,456.7    337.9,458.9 340.1,477.2 340.1,479.4 342.3,486.2 340.1,495.5 337.9,495.5 328.7,493.2 326.5,493.2 324.2,488.6 319.6,488.6    310.4,490.9 308.2,490.9 306,490.9 303.6,484 306,479.4 306,477.2 303.6,477.2 299.2,479.4 294.6,477.2 292.2,472.6 290,472.6    290,470.4 287.7,472.6 285.3,475 285.3,481.8 287.7,479.4 292.2,481.8 296.8,481.8 301.4,486.2 301.4,488.6 301.4,490.9    296.8,493.2 294.6,495.5 290,495.5 285.3,495.5 283.1,497.7 283.1,500.1 287.7,502.3 292.2,504.5 294.6,506.9  ">
	</polygon>
	<polygon
   id="Hatillo"
   inkscape:label="Hatillo"
   class="st0"
   points="376.6,117.4 374.2,108.2 372,101.5 369.8,80.9 372,71.8    369.8,65 363,51.4 360.6,44.5 360.6,42.2 363,39.9 367.4,39.9 381.1,37.6 394.9,35.3 408.5,35.3 415.3,39.9 420,42.2 420,44.5    417.6,60.4 417.6,65 417.6,74.1 417.6,76.5 415.3,80.9 415.3,83.3 415.3,85.5 417.6,87.7 417.6,90.1 417.6,92.3 417.6,99.1    415.3,106 415.3,108.2 417.6,117.4 417.6,119.6 415.3,135.5 415.3,176.6 415.3,178.8 401.7,178.8 394.9,178.8 369.8,176.6    372,169.8 372,165.2 372,160.6 376.6,151.5 378.8,142.5 383.4,124.2 378.8,119.6  ">
	</polygon>
	<polygon
   id="Hormigueros"
   inkscape:label="Hormigueros"
   class="st0"
   points="155.5,358.8 148.7,358.8 130.4,352 128.2,349.8    128.2,347.4 125.8,347.4 123.6,347.4 121.2,345.2 121.2,342.8 119,340.5 119,336.1 116.8,333.7 114.4,329.1 107.6,326.9    105.4,322.3 100.8,320.1 103.1,315.5 114.4,317.7 119,317.7 119,320.1 123.6,317.7 123.6,315.5 125.8,315.5 128.2,315.5    130.4,315.5 132.7,317.7 135,315.5 137.3,313.3 139.5,313.3 141.9,313.3 144.1,313.3 146.3,315.5 148.7,315.5 150.9,315.5    157.7,320.1 160.1,322.3 162.3,322.3 160.1,326.9 153.3,329.1 153.3,333.7 155.5,340.5 166.9,349.8 166.9,352 166.9,354.4    164.6,356.4 164.6,358.8 160.1,361  ">
	</polygon>
	<polygon
   id="Humacao"
   inkscape:label="Humacao"
   class="st0"
   points="1137.9,358.8 1137.9,354.4 1131,349.8 1133.3,347.4    1135.6,342.8 1140.1,336.1 1140.1,333.7 1142.5,333.7 1144.7,331.5 1144.7,326.9 1144.7,320.1 1149.3,311 1149.3,308.6 1149.3,304    1151.5,301.8 1156.1,299.4 1158.3,299.4 1165.2,301.8 1165.2,299.4 1167.6,295 1172,292.8 1174.4,288.2 1174.4,281.3 1178.8,276.7    1188,276.7 1194.8,279.1 1199.5,276.7 1226.8,286 1224.4,290.4 1222.1,297.4 1231.4,299.4 1233.6,301.8 1235.8,299.4 1242.6,297.4    1242.6,304 1242.6,306.4 1242.6,311 1240.4,311 1240.4,313.3 1235.8,313.3 1231.4,315.5 1226.8,317.7 1222.1,322.3 1222.1,324.7    1219.9,326.9 1210.7,342.8 1210.7,345.2 1203.9,372.5 1203.9,374.7 1197.1,379.3 1197.1,390.7 1192.6,390.7 1188,390.7    1185.6,386.1 1185.6,383.9 1183.4,381.5 1176.6,381.5 1169.8,377.1 1162.9,374.7 1162.9,372.5 1160.6,370.2 1160.6,367.8    1156.1,365.6 1160.6,358.8 1160.6,356.4 1158.3,352 1153.9,349.8 1149.3,352 1146.9,352 1144.7,354.4 1142.5,356.4 1144.7,358.8    1142.5,358.8  ">
	</polygon>
	<polygon
   id="Isabela"
   inkscape:label="Isabela"
   class="st0"
   points="237.6,121.8 233,119.6 228.4,117.4 226.1,117.4 207.9,117.4    189.6,74.1 189.6,71.8 187.4,67.2 185.2,60.4 185.2,53.6 182.8,53.6 182.8,49 180.6,42.2 171.4,37.6 166.9,37.6 164.6,37.6    164.6,35.3 164.6,30.9 162.3,28.5 157.7,23.9 153.3,19.5 153.3,17.1 144.1,14.9 150.9,14.9 153.3,14.9 157.7,14.9 187.4,14.9    194.2,14.9 196.5,14.9 201.1,17.1 207.9,17.1 210.1,19.5 214.7,19.5 221.5,21.7 226.1,23.9 249,35.3 264.9,37.6 269.5,46.8    260.3,51.4 264.9,58.2 260.3,65 258.1,69.6 264.9,78.7 271.7,80.9 273.9,80.9 276.3,92.3 278.5,94.5 283.1,96.9 283.1,99.1    278.5,103.7 276.3,103.7 273.9,106 271.7,110.6 273.9,110.6 276.3,112.8 278.5,112.8 285.3,112.8 292.2,112.8 292.2,115    292.2,117.4 287.7,119.6 285.3,119.6 283.1,121.8 280.9,126.4 280.9,128.7 280.9,131 273.9,133.3 271.7,131 262.7,126.4    251.2,124.2 246.6,124.2 242.2,124.2  ">
	</polygon>
	<polygon
   id="Jayuya"
   inkscape:label="Jayuya"
   class="st0"
   points="563.4,210.7 568,210.7 570.3,210.7 570.3,208.5 572.6,201.7    577.1,199.5 583.9,201.7 588.5,212.9 586.3,217.5 583.9,217.5 586.3,222.1 586.3,235.8 581.7,235.8 581.7,240.4 579.5,244.8    581.7,247.2 586.3,249.4 588.5,256.3 593.1,263.1 602.2,269.9 604.6,283.6 602.2,292.8 606.8,297.4 604.6,301.8 599.9,301.8    597.7,308.6 597.7,313.3 593.1,320.1 588.5,322.3 583.9,320.1 577.1,315.5 572.6,308.6 558.8,304 554.4,306.4 547.6,308.6    543,313.3 538.4,315.5 531.5,315.5 526.9,317.7 524.7,322.3 520.1,322.3 511.1,315.5 508.8,306.4 508.8,295 517.9,295 515.7,286    520.1,274.5 524.7,272.3 526.9,263.1 529.3,258.7 529.3,256.3 531.5,251.7 531.5,242.6 531.5,240.4 533.9,240.4 536.1,240.4    538.4,240.4 552.2,238 552.2,224.4 554.4,219.8 554.4,217.5 552.2,215.3 552.2,212.9 554.4,210.7 556.6,210.7 558.8,210.7  ">
	</polygon>
	<polygon
   id="Juana_Dias"
   inkscape:label="Juana Dias"
   class="st0"
   points="627.2,381.5 629.6,377.1 629.6,374.7 627.2,372.5    627.2,370.2 629.6,370.2 636.5,367.8 638.7,367.8 640.9,370.2 643.3,372.5 647.9,377.1 663.8,379.3 670.6,379.3 675.2,379.3    677.4,379.3 679.8,379.3 682,379.3 684.2,379.3 686.6,381.5 688.8,388.3 688.8,395.3 686.6,395.3 693.4,406.6 691,406.6 691,413.4    691,418 691,422.6 695.7,434 691,438.5 688.8,440.9 686.6,440.9 684.2,443.1 684.2,447.7 684.2,452.1 682,456.7 675.2,461.3    673,463.6 663.8,458.9 661.5,456.7 656.9,456.7 645.5,456.7 643.3,456.7 631.8,458.9 622.8,461.3 613.6,465.8 599.9,472.6    597.7,456.7 602.2,456.7 606.8,447.7 602.2,436.3 602.2,431.7 599.9,427.2 597.7,422.6 599.9,420.2 599.9,418 602.2,415.8    602.2,413.4 595.3,390.7 590.9,381.5 586.3,379.3 593.1,370.2 590.9,363.2 586.3,352 581.7,352 579.5,345.2 579.5,340.5    579.5,333.7 579.5,331.5 581.7,329.1 583.9,326.9 586.3,326.9 588.5,322.3 593.1,320.1 597.7,324.7 602.2,322.3 606.8,322.3    609,322.3 613.6,322.3 613.6,326.9 611.4,331.5 609,333.7 609,336.1 609,338.3 613.6,347.4 609,356.4 606.8,358.8 613.6,374.7    618.2,377.1 622.8,381.5 625,381.5  ">
	</polygon>
	<polygon
   id="Jucos"
   inkscape:label="Jucos"
   class="st0"
   points="1101.4,308.6 1101.4,313.3 1099.1,317.7 1096.7,320.1    1092.3,329.1 1089.9,320.1 1087.7,313.3 1089.9,308.6 1092.3,301.8 1092.3,290.4 1089.9,283.6 1085.3,283.6 1083.1,281.3    1076.3,274.5 1076.3,272.3 1071.7,267.7 1074.1,256.3 1080.9,254.1 1083.1,254.1 1078.7,249.4 1076.3,247.2 1074.1,244.8    1076.3,238 1085.3,231.2 1087.7,229 1092.3,224.4 1094.5,224.4 1099.1,222.1 1101.4,224.4 1106,226.6 1110.6,229 1117.4,231.2    1119.6,229 1121.8,229 1124.2,231.2 1126.4,231.2 1128.7,233.6 1135.6,238 1137.9,238 1140.1,235.8 1144.7,233.6 1151.5,235.8    1151.5,238 1151.5,240.4 1146.9,247.2 1142.5,258.7 1140.1,260.9 1140.1,265.5 1133.3,267.7 1128.7,274.5 1124.2,283.6    1117.4,279.1 1115,286 1112.8,288.2 1112.8,290.4 1110.6,295 1108.2,299.4 1106,301.8 1103.6,308.6  ">
	</polygon>
	<polygon
   id="Lajas"
   inkscape:label="Lajas"
   class="st0"
   points="137.3,427.2 137.3,420.2 139.5,413.4 137.3,411.2 137.3,409    141.9,399.7 150.9,397.5 157.7,395.3 166.9,395.3 173.8,392.9 180.6,392.9 185.2,395.3 196.5,397.5 207.9,397.5 214.7,399.7    223.9,397.5 228.4,402.1 235.2,404.4 242.2,404.4 244.4,413.4 255.8,415.8 260.3,418 262.7,420.2 262.7,431.7 260.3,436.3    260.3,443.1 260.3,447.7 260.3,454.3 244.4,488.6 242.2,486.2 242.2,481.8 239.8,475 235.2,472.6 223.9,472.6 226.1,477.2    228.4,481.8 223.9,479.4 216.9,475 198.9,470.4 182.8,468.2 178.2,468.2 173.8,470.4 171.4,472.6 166.9,475 164.6,477.2    166.9,479.4 166.9,481.8 164.6,484 162.3,481.8 160.1,477.2 157.7,479.4 157.7,484 155.5,488.6 148.7,493.2 146.3,493.2    139.5,493.2 139.5,490.9 141.9,488.6 144.1,484 141.9,477.2 144.1,475 146.3,472.6 146.3,468.2 141.9,465.8 139.5,465.8    141.9,449.9 139.5,436.3 139.5,431.7  ">
	</polygon>
	<polygon
   id="Lares"
   inkscape:label="Lares"
   class="st0"
   points="312.8,160.6 317.3,140.1 321.9,140.1 324.2,140.1 324.2,142.5    326.5,144.7 328.7,149.3 340.1,149.3 353.8,153.7 367.4,158.3 372,160.6 372,165.2 372,169.8 369.8,176.6 369.8,183.4 369.8,185.6    372,188 367.4,208.5 367.4,215.3 369.8,219.8 369.8,224.4 369.8,229 369.8,231.2 369.8,244.8 376.6,256.3 372,254.1 369.8,254.1    367.4,254.1 365.2,254.1 365.2,256.3 363,265.5 360.6,272.3 360.6,286 360.6,292.8 363,295 365.2,297.4 369.8,299.4 369.8,304    360.6,306.4 356.1,304 353.8,304 351.5,304 349.2,306.4 342.3,301.8 342.3,299.4 340.1,295 340.1,292.8 335.5,290.4 333.3,292.8    330.9,290.4 326.5,290.4 319.6,292.8 315,290.4 312.8,290.4 306,274.5 299.2,251.7 303.6,244.8 303.6,242.6 303.6,235.8    303.6,224.4 301.4,215.3 301.4,206.1 301.4,199.5 303.6,194.9 306,181.2 306,178.8 308.2,176.6  ">
	</polygon>
	<polygon
   id="Las_Marias"
   inkscape:label="Las Marias"
   class="st0"
   points="185.2,224.4 187.4,224.4 189.6,224.4 194.2,219.8    198.9,219.8 196.5,210.7 201.1,203.9 203.3,208.5 207.9,212.9 216.9,215.3 223.9,212.9 226.1,212.9 235.2,217.5 239.8,217.5    246.6,217.5 251.2,217.5 253.4,222.1 253.4,224.4 253.4,226.6 255.8,226.6 258.1,224.4 260.3,222.1 262.7,219.8 264.9,219.8    271.7,219.8 273.9,219.8 276.3,229 278.5,231.2 280.9,231.2 287.7,233.6 296.8,233.6 303.6,235.8 303.6,242.6 303.6,244.8    299.2,251.7 306,274.5 312.8,290.4 299.2,288.2 262.7,281.3 255.8,274.5 249,274.5 246.6,274.5 237.6,276.7 237.6,279.1    235.2,281.3 226.1,286 214.7,283.6 214.7,276.7 203.3,272.3 203.3,265.5 201.1,263.1 194.2,258.7 189.6,256.3 189.6,251.7    185.2,242.6 182.8,240.4 180.6,242.6 171.4,240.4 169.2,238 166.9,235.8 164.6,233.6 166.9,231.2 176,231.2 178.2,229 180.6,219.8    182.8,222.1  ">
	</polygon>
	<polygon
   id="Las_Piedras"
   inkscape:label="Las Piedras"
   class="st0"
   points="1108.2,299.4 1110.6,295 1112.8,290.4 1112.8,288.2    1115,286 1117.4,279.1 1124.2,283.6 1128.7,274.5 1133.3,267.7 1140.1,265.5 1140.1,260.9 1142.5,258.7 1146.9,247.2 1151.5,240.4    1151.5,238 1151.5,235.8 1156.1,233.6 1160.6,226.6 1162.9,226.6 1162.9,222.1 1162.9,219.8 1165.2,217.5 1167.6,219.8    1169.8,222.1 1172,219.8 1174.4,219.8 1174.4,224.4 1178.8,224.4 1181.2,226.6 1181.2,229 1181.2,238 1176.6,242.6 1172,256.3    1172,258.7 1169.8,265.5 1169.8,269.9 1174.4,281.3 1174.4,288.2 1172,292.8 1167.6,295 1165.2,299.4 1165.2,301.8 1158.3,299.4    1156.1,299.4 1151.5,301.8 1149.3,304 1149.3,308.6 1149.3,311 1144.7,320.1 1144.7,326.9 1144.7,331.5 1142.5,333.7 1140.1,333.7    1140.1,336.1 1135.6,342.8 1133.3,347.4 1131,349.8 1124.2,347.4 1117.4,345.2 1112.8,345.2 1108.2,345.2 1103.6,345.2    1103.6,347.4 1101.4,347.4 1099.1,347.4 1094.5,349.8 1092.3,349.8 1092.3,347.4 1094.5,340.5 1094.5,336.1 1092.3,333.7    1092.3,329.1 1096.7,320.1 1099.1,317.7 1101.4,313.3 1101.4,308.6 1103.6,308.6 1106,301.8  ">
	</polygon>
	<polygon
   id="Loiza"
   inkscape:label="Loiza"
   class="st0"
   points="1142.5,128.7 1142.5,131 1140.1,131 1133.3,131 1137.9,106    1112.8,101.5 1106,112.8 1099.1,112.8 1096.7,103.7 1089.9,94.5 1083.1,87.7 1074.1,83.3 1067.2,85.5 1060.4,85.5 1060.4,87.7    1060.4,85.5 1058,83.3 1055.8,80.9 1049,78.7 1046.6,78.7 1044.4,76.5 1044.4,74.1 1046.6,71.8 1039.8,65 1039.8,62.6 1042.2,62.6    1044.4,65 1058,67.2 1064.8,69.6 1078.7,74.1 1085.3,74.1 1092.3,76.5 1099.1,76.5 1106,74.1 1108.2,74.1 1117.4,74.1 1121.8,76.5    1126.4,78.7 1128.7,80.9 1131,80.9 1133.3,80.9 1135.6,83.3 1158.3,87.7 1172,94.5 1167.6,96.9 1167.6,99.1 1165.2,101.5    1162.9,103.7 1160.6,106 1158.3,108.2 1156.1,110.6 1153.9,110.6 1151.5,112.8 1151.5,115 1149.3,117.4 1149.3,119.6 1149.3,121.8    1146.9,128.7  ">
	</polygon>
	<polygon
   id="Luquillo"
   inkscape:label="Luquillo"
   class="st0"
   points="1281.3,140.1 1299.6,144.7 1290.6,158.3 1290.6,160.6    1292.9,160.6 1290.6,162.9 1288.3,169.8 1286,172 1286,176.6 1286,178.8 1281.3,176.6 1279.1,176.6 1276.9,176.6 1274.5,178.8    1272.3,178.8 1272.3,181.2 1270.1,181.2 1270.1,183.4 1270.1,185.6 1270.1,190.2 1267.7,192.5 1265.5,192.5 1263.3,192.5    1258.7,192.5 1258.7,194.9 1258.7,197.1 1258.7,201.7 1254,201.7 1254,203.9 1251.8,206.1 1249.6,206.1 1247.2,208.5 1245,199.5    1240.4,197.1 1235.8,197.1 1233.6,197.1 1231.4,199.5 1231.4,201.7 1229,203.9 1226.8,206.1 1226.8,201.7 1229,201.7 1229,199.5    1224.4,194.9 1224.4,192.5 1224.4,190.2 1226.8,183.4 1229,181.2 1231.4,181.2 1233.6,181.2 1233.6,178.8 1235.8,176.6    1233.6,174.4 1229,174.4 1229,172 1229,169.8 1231.4,167.6 1231.4,162.9 1229,160.6 1226.8,156.1 1224.4,156.1 1224.4,153.7    1222.1,151.5 1219.9,151.5 1219.9,149.3 1217.5,142.5 1222.1,140.1 1222.1,135.5 1224.4,135.5 1231.4,131 1233.6,126.4    1238.2,128.7 1240.4,131 1242.6,131 1247.2,128.7 1249.6,126.4 1251.8,124.2 1254,121.8 1256.4,121.8 1258.7,121.8 1258.7,124.2    1258.7,126.4 1258.7,128.7 1263.3,135.5 1265.5,135.5 1274.5,140.1  ">
	</polygon>
	<polygon
   id="Manati"
   inkscape:label="Manati"
   class="st0"
   points="604.6,124.2 604.6,121.8 599.9,115 597.7,110.6    597.7,108.2 597.7,106 597.7,103.7 597.7,101.5 597.7,99.1 597.7,96.9 604.6,94.5 609,92.3 611.4,92.3 611.4,87.7 606.8,85.5    604.6,85.5 602.2,83.3 599.9,76.5 602.2,74.1 606.8,71.8 611.4,67.2 609,65 606.8,65 602.2,69.6 602.2,67.2 602.2,65 606.8,62.6    606.8,60.4 606.8,58.2 606.8,53.6 606.8,51.4 604.6,49 604.6,46.8 606.8,42.2 611.4,42.2 622.8,49 636.5,51.4 643.3,53.6    652.3,55.8 659.1,55.8 663.8,55.8 668.4,55.8 670.6,55.8 673,53.6 677.4,49 679.8,44.5 679.8,42.2 682,42.2 679.8,60.4 679.8,69.6    679.8,74.1 679.8,80.9 679.8,87.7 679.8,106 679.8,108.2 679.8,112.8 673,119.6 673,121.8 673,124.2 675.2,126.4 675.2,131    675.2,133.3 677.4,137.9 661.5,137.9 659.1,137.9 654.7,140.1 652.3,140.1 650.1,142.5 638.7,142.5 634.2,142.5 622.8,144.7    618.2,146.9 613.6,151.5 609,156.1 606.8,156.1 604.6,153.7 606.8,137.9 604.6,131 604.6,126.4  ">
	</polygon>
	<polygon
   id="Maricao"
   inkscape:label="Maricao"
   class="st0"
   points="342.3,299.4 342.3,301.8 349.2,306.4 351.5,304 353.8,304    356.1,304 360.6,306.4 360.6,308.6 358.4,308.6 356.1,313.3 351.5,313.3 349.2,311 346.9,326.9 344.7,331.5 344.7,333.7    342.3,331.5 340.1,331.5 333.3,331.5 328.7,329.1 326.5,324.7 321.9,320.1 319.6,320.1 317.3,320.1 317.3,322.3 317.3,324.7    308.2,324.7 308.2,326.9 306,324.7 301.4,320.1 296.8,320.1 290,322.3 283.1,322.3 280.9,324.7 278.5,324.7 269.5,324.7    262.7,326.9 260.3,326.9 258.1,324.7 255.8,326.9 253.4,329.1 246.6,326.9 237.6,324.7 235.2,322.3 235.2,320.1 233,317.7    230.8,317.7 230.8,315.5 228.4,315.5 226.1,315.5 223.9,315.5 219.3,311 212.5,308.6 207.9,308.6 201.1,306.4 194.2,306.4 192,304    189.6,304 189.6,301.8 187.4,301.8 192,299.4 194.2,299.4 196.5,297.4 201.1,295 201.1,292.8 210.1,292.8 214.7,290.4 214.7,283.6    226.1,286 235.2,281.3 237.6,281.3 237.6,279.1 237.6,276.7 246.6,274.5 249,274.5 255.8,274.5 262.7,281.3 299.2,288.2    312.8,290.4 315,290.4 319.6,292.8 326.5,290.4 330.9,290.4 333.3,292.8 335.5,290.4 340.1,292.8 340.1,295  ">
	</polygon>
	<polygon
   id="Maunabo"
   inkscape:label="Maunabo"
   class="st0"
   points="1078.7,456.7 1071.7,445.3 1071.7,443.1 1069.5,438.5    1069.5,434 1071.7,429.4 1064.8,427.2 1062.6,424.8 1062.6,427.2 1058,429.4 1055.8,429.4 1049,420.2 1044.4,411.2 1044.4,404.4    1042.2,399.7 1044.4,399.7 1051.2,397.5 1055.8,404.4 1055.8,406.6 1058,404.4 1060.4,404.4 1062.6,404.4 1067.2,406.6    1071.7,413.4 1071.7,411.2 1080.9,415.8 1087.7,418 1089.9,418 1096.7,420.2 1103.6,422.6 1108.2,420.2 1115,420.2 1124.2,424.8    1128.7,431.7 1135.6,429.4 1137.9,429.4 1140.1,427.2 1142.5,427.2 1144.7,429.4 1144.7,431.7 1149.3,436.3 1151.5,436.3    1153.9,438.5 1153.9,440.9 1142.5,443.1 1135.6,447.7 1106,465.8 1103.6,463.6 1101.4,463.6 1099.1,461.3 1096.7,463.6    1094.5,461.3 1092.3,461.3 1085.3,458.9 1080.9,456.7  ">
	</polygon>
	<polygon
   id="Mayaguez"
   inkscape:label="Mayaguez"
   class="st0"
   points="203.3,272.3 214.7,276.7 214.7,283.6 214.7,290.4    210.1,292.8 201.1,292.8 201.1,295 196.5,297.4 194.2,299.4 192,299.4 187.4,301.8 180.6,301.8 171.4,301.8 164.6,306.4    162.3,308.6 160.1,311 160.1,317.7 160.1,322.3 157.7,320.1 150.9,315.5 148.7,315.5 146.3,315.5 144.1,313.3 141.9,313.3    139.5,313.3 137.3,313.3 135,315.5 132.7,317.7 130.4,315.5 128.2,315.5 125.8,315.5 123.6,315.5 123.6,317.7 119,320.1 119,317.7    114.4,317.7 103.1,315.5 100.8,320.1 98.5,317.7 96.1,317.7 91.7,313.3 91.7,311 89.3,308.6 87.1,308.6 84.9,306.4 87.1,301.8    100.8,288.2 103.1,286 105.4,283.6 105.4,281.3 107.6,279.1 107.6,276.7 107.6,274.5 105.4,269.9 96.1,263.1 91.7,256.3    91.7,244.8 89.3,240.4 89.3,238 87.1,233.6 82.5,229 80.3,224.4 84.9,222.1 89.3,222.1 96.1,219.8 98.5,219.8 100.8,219.8    100.8,217.5 110,219.8 121.2,224.4 121.2,229 121.2,240.4 130.4,244.8 139.5,240.4 144.1,235.8 148.7,235.8 153.3,238 155.5,238    160.1,238 164.6,233.6 166.9,235.8 169.2,238 171.4,240.4 180.6,242.6 182.8,240.4 185.2,242.6 189.6,251.7 189.6,256.3    194.2,258.7 201.1,263.1 203.3,265.5  ">
	</polygon>
	<polygon
   id="Moca"
   inkscape:label="Moca"
   class="st0"
   points="173.8,185.6 166.9,185.6 160.1,183.4 148.7,181.2 139.5,178.8    132.7,176.6 128.2,178.8 125.8,181.2 125.8,178.8 123.6,169.8 125.8,165.2 123.6,158.3 121.2,156.1 123.6,156.1 125.8,153.7    128.2,149.3 128.2,144.7 128.2,142.5 128.2,135.5 125.8,131 123.6,119.6 128.2,115 130.4,108.2 130.4,106 130.4,103.7 135,99.1    141.9,92.3 150.9,80.9 153.3,80.9 155.5,80.9 157.7,78.7 160.1,78.7 164.6,74.1 169.2,74.1 169.2,71.8 171.4,69.6 171.4,65    185.2,60.4 187.4,67.2 189.6,71.8 189.6,74.1 207.9,117.4 203.3,124.2 201.1,131 201.1,135.5 198.9,137.9 198.9,140.1 196.5,146.9    196.5,149.3 192,151.5 192,153.7 196.5,160.6 198.9,165.2 201.1,167.6 201.1,172 201.1,174.4 196.5,178.8 187.4,190.2 180.6,185.6     ">
	</polygon>
	<polygon
   id="Morovis"
   inkscape:label="Morovis"
   class="st0"
   points="697.9,133.3 697.9,135.5 700.3,135.5 700.3,137.9 707.1,142.5    711.7,144.7 716.1,137.9 718.5,142.5 720.7,142.5 720.7,144.7 720.7,153.7 723,158.3 723,160.6 727.6,162.9 729.9,160.6    734.4,162.9 734.4,165.2 736.8,167.6 739,169.8 741.2,169.8 739,172 736.8,178.8 734.4,188 734.4,190.2 734.4,194.9 734.4,197.1    732.2,199.5 729.9,201.7 727.6,203.9 725.3,206.1 723,210.7 720.7,217.5 718.5,219.8 713.9,224.4 707.1,226.6 704.9,229 702.5,229    691,231.2 688.8,231.2 682,233.6 677.4,233.6 668.4,233.6 666,233.6 666,231.2 663.8,222.1 663.8,217.5 663.8,215.3 663.8,212.9    661.5,212.9 659.1,210.7 663.8,197.1 666,197.1 668.4,197.1 668.4,185.6 668.4,174.4 668.4,169.8 663.8,160.6 661.5,156.1    659.1,153.7 661.5,146.9 661.5,137.9 677.4,137.9 688.8,137.9 691,137.9 693.4,133.3 695.7,133.3  ">
	</polygon>
	<polygon
   id="Naguabo"
   inkscape:label="Naguabo"
   class="st0"
   points="1279.1,299.4 1276.9,299.4 1274.5,295 1272.3,295 1270.1,295    1265.5,292.8 1265.5,290.4 1260.9,290.4 1254,290.4 1247.2,297.4 1242.6,304 1242.6,297.4 1235.8,299.4 1233.6,301.8 1231.4,299.4    1222.1,297.4 1224.4,290.4 1226.8,286 1199.5,276.7 1194.8,279.1 1188,276.7 1178.8,276.7 1174.4,281.3 1169.8,269.9 1169.8,265.5    1172,258.7 1172,256.3 1176.6,242.6 1181.2,238 1181.2,229 1181.2,226.6 1178.8,224.4 1174.4,224.4 1174.4,219.8 1178.8,215.3    1181.2,210.7 1183.4,208.5 1185.6,206.1 1188,206.1 1190.2,208.5 1194.8,206.1 1199.5,203.9 1199.5,199.5 1203.9,201.7    1206.3,201.7 1208.5,206.1 1210.7,208.5 1215.3,212.9 1217.5,212.9 1219.9,215.3 1222.1,215.3 1224.4,217.5 1224.4,222.1    1229,224.4 1231.4,226.6 1233.6,229 1235.8,229 1240.4,229 1242.6,231.2 1245,231.2 1245,233.6 1249.6,235.8 1256.4,238    1258.7,238 1258.7,235.8 1256.4,235.8 1256.4,233.6 1258.7,233.6 1260.9,233.6 1265.5,235.8 1267.7,233.6 1270.1,233.6    1272.3,231.2 1274.5,233.6 1276.9,233.6 1279.1,235.8 1279.1,238 1283.7,238 1286,235.8 1288.3,235.8 1288.3,238 1288.3,240.4    1288.3,242.6 1286,242.6 1283.7,244.8 1281.3,247.2 1279.1,249.4 1281.3,249.4 1283.7,251.7 1283.7,254.1 1286,256.3 1290.6,258.7    1297.4,260.9 1299.6,263.1 1302,260.9 1304.2,260.9 1308.8,260.9 1308.8,263.1 1306.6,267.7 1304.2,269.9 1306.6,274.5    1306.6,276.7 1302,276.7 1297.4,281.3 1290.6,281.3 1286,283.6 1283.7,283.6 1281.3,286 1279.1,290.4 1279.1,292.8 1281.3,295    1281.3,299.4  ">
	</polygon>
	<polygon
   id="Naranjito"
   inkscape:label="Naranjito"
   class="st0"
   points="848.3,176.6 853,172 855.2,169.8 859.8,169.8 862,176.6    862,178.8 866.6,178.8 868.8,183.4 868.8,192.5 866.6,192.5 862,192.5 864.4,203.9 866.6,210.7 866.6,212.9 866.6,217.5    857.6,219.8 853,226.6 850.7,235.8 843.9,235.8 839.3,235.8 836.9,240.4 834.7,240.4 827.9,242.6 823.3,242.6 818.8,242.6    809.6,244.8 800.6,242.6 798.2,242.6 796,242.6 786.8,247.2 782.3,240.4 786.8,238 798.2,231.2 802.8,219.8 802.8,203.9 805,194.9    809.6,172 812,172 814.2,172 816.4,174.4 823.3,172 825.7,169.8 830.1,174.4 834.7,176.6 834.7,172 836.9,172 841.5,169.8    841.5,172 846.1,176.6 846.1,178.8  ">
	</polygon>
	<polygon
   id="Orocovis"
   inkscape:label="Orocovis"
   class="st0"
   points="620.4,317.7 613.6,322.3 609,322.3 606.8,322.3 602.2,322.3    597.7,324.7 593.1,320.1 597.7,313.3 599.9,315.5 609,317.7 613.6,313.3 615.8,311 620.4,311 622.8,308.6 622.8,301.8 622.8,299.4    620.4,288.2 622.8,283.6 622.8,281.3 622.8,272.3 620.4,267.7 618.2,260.9 618.2,258.7 618.2,256.3 620.4,256.3 625,256.3    625,251.7 622.8,244.8 625,240.4 629.6,233.6 631.8,233.6 634.2,238 638.7,238 643.3,238 645.5,238 650.1,238 652.3,240.4    656.9,242.6 659.1,242.6 661.5,242.6 668.4,238 668.4,235.8 668.4,233.6 677.4,233.6 682,233.6 688.8,231.2 691,231.2 702.5,229    704.9,229 707.1,226.6 713.9,224.4 718.5,219.8 720.7,217.5 723,210.7 725.3,206.1 727.6,203.9 729.9,201.7 729.9,203.9    729.9,208.5 729.9,210.7 727.6,210.7 727.6,212.9 725.3,215.3 725.3,217.5 725.3,219.8 729.9,219.8 732.2,219.8 734.4,224.4    741.2,231.2 743.6,233.6 745.8,242.6 750.4,247.2 752.6,247.2 750.4,254.1 752.6,258.7 752.6,260.9 750.4,260.9 750.4,267.7    752.6,276.7 750.4,286 748.2,288.2 745.8,283.6 743.6,283.6 743.6,281.3 741.2,281.3 739,283.6 739,286 739,295 734.4,301.8    732.2,301.8 729.9,304 720.7,304 718.5,311 716.1,311 711.7,311 707.1,311 704.9,313.3 700.3,313.3 697.9,311 695.7,311    693.4,308.6 693.4,306.4 684.2,301.8 679.8,301.8 675.2,301.8 670.6,299.4 668.4,299.4 666,301.8 663.8,301.8 656.9,299.4    654.7,299.4 652.3,304 650.1,306.4 640.9,311 634.2,308.6 631.8,311 629.6,311 627.2,311 622.8,315.5  ">
	</polygon>
	<polygon
   id="Patillas"
   inkscape:label="Patillas"
   class="st0"
   points="1019.3,379.3 1017.1,379.3 1019.3,381.5 1026.1,386.1    1026.1,390.7 1026.1,392.9 1035.3,399.7 1042.2,399.7 1044.4,404.4 1044.4,411.2 1049,420.2 1055.8,429.4 1058,429.4 1060.4,427.2    1062.6,424.8 1064.8,427.2 1071.7,429.4 1069.5,434 1069.5,438.5 1071.7,443.1 1071.7,445.3 1078.7,456.7 1080.9,456.7    1085.3,458.9 1092.3,461.3 1096.7,463.6 1099.1,461.3 1101.4,463.6 1103.6,463.6 1106,465.8 1103.6,470.4 1099.1,470.4    1083.1,472.6 1053.6,477.2 1049,477.2 1046.6,475 1042.2,472.6 1039.8,470.4 1037.5,468.2 1032.9,468.2 1023.9,468.2 1017.1,468.2    1014.9,463.6 1014.9,461.3 1014.9,458.9 1012.5,456.7 1012.5,454.3 1005.6,452.1 1001,447.7 998.8,445.3 996.6,443.1 1001,436.3    998.8,434 998.8,431.7 998.8,427.2 998.8,424.8 994.2,420.2 987.4,415.8 973.7,418 969.1,420.2 966.9,422.6 964.7,420.2 964.7,418    962.3,413.4 964.7,409 962.3,402.1 964.7,397.5 969.1,395.3 969.1,390.7 969.1,388.3 969.1,386.1 973.7,386.1 978.3,383.9    980.6,381.5 982.8,379.3 982.8,377.1 985.2,374.7 985.2,370.2 985.2,367.8 992,358.8 992,356.4 992,358.8 994.2,358.8 998.8,361    998.8,363.2 1003.4,363.2 1007.9,363.2 1012.5,363.2 1014.9,363.2 1017.1,363.2 1023.9,367.8 1023.9,370.2 1021.7,372.5  ">
	</polygon>
	<polygon
   id="Penuelas"
   inkscape:label="Penuelas"
   class="st0"
   points="420,356.4 422.2,354.4 420,352 417.6,345.2 415.3,342.8    415.3,338.3 415.3,336.1 417.6,336.1 422.2,338.3 422.2,340.5 424.4,342.8 426.8,347.4 426.8,349.8 431.2,352 431.2,354.4    435.8,352 438.2,352 444.9,354.4 449.5,354.4 449.5,352 451.9,349.8 449.5,347.4 451.9,345.2 454.1,342.8 456.3,342.8 456.3,338.3    460.9,338.3 463.1,340.5 467.7,340.5 474.5,340.5 476.9,345.2 486,358.8 488.2,363.2 488.2,374.7 488.2,377.1 488.2,388.3    486,390.7 483.8,399.7 481.4,404.4 479.2,415.8 479.2,420.2 479.2,424.8 481.4,431.7 481.4,434 481.4,436.3 479.2,445.3    481.4,449.9 481.4,454.3 481.4,456.7 476.9,461.3 476.9,463.6 474.5,463.6 472.3,465.8 472.3,468.2 463.1,463.6 460.9,458.9    456.3,456.7 451.9,456.7 444.9,456.7 433.6,456.7 426.8,468.2 426.8,470.4 424.4,470.4 420,465.8 420,461.3 426.8,461.3    426.8,449.9 429,443.1 431.2,440.9 433.6,438.5 435.8,438.5 440.4,438.5 442.6,438.5 442.6,436.3 444.9,434 442.6,431.7    440.4,427.2 435.8,422.6 442.6,413.4 440.4,413.4 440.4,409 438.2,409 433.6,411.2 426.8,402.1 424.4,402.1 417.6,415.8 415.3,409    415.3,402.1 415.3,397.5 415.3,390.7 415.3,388.3 417.6,386.1 417.6,383.9 417.6,381.5 417.6,379.3 415.3,377.1 415.3,372.5    417.6,365.6 417.6,363.2 417.6,358.8  ">
	</polygon>
	<polygon
   id="Ponce"
   inkscape:label="Ponce"
   class="st0"
   points="558.8,304 572.6,308.6 577.1,315.5 583.9,320.1 588.5,322.3    586.3,326.9 583.9,326.9 581.7,329.1 579.5,331.5 579.5,333.7 579.5,340.5 579.5,345.2 581.7,352 586.3,352 590.9,363.2    593.1,370.2 586.3,379.3 590.9,381.5 595.3,392.9 602.2,413.4 602.2,415.8 599.9,418 599.9,420.2 597.7,422.6 599.9,427.2    602.2,431.7 602.2,436.3 606.8,449.9 602.2,456.7 597.7,456.7 599.9,472.6 565.8,481.8 558.8,475 554.4,475 549.8,475 543,479.4    536.1,481.8 533.9,475 538.4,472.6 536.1,468.2 529.3,463.6 520.1,465.8 511.1,465.8 499.6,477.2 490.6,477.2 472.3,468.2    472.3,465.8 474.5,463.6 476.9,463.6 476.9,461.3 481.4,456.7 481.4,454.3 481.4,449.9 479.2,445.3 481.4,436.3 481.4,434    481.4,431.7 479.2,424.8 479.2,420.2 479.2,415.8 481.4,404.4 483.8,399.7 486,390.7 488.2,388.3 488.2,377.1 488.2,374.7    488.2,363.2 486,358.8 476.9,345.2 474.5,340.5 483.8,338.3 486,340.5 488.2,340.5 490.6,340.5 492.8,331.5 492.8,326.9    495.2,320.1 497.4,320.1 499.6,320.1 506.5,317.7 508.8,315.5 511.1,315.5 520.1,322.3 526.9,322.3 526.9,317.7 531.5,315.5    538.4,315.5 543,313.3 547.6,308.6 554.4,306.4  ">
	</polygon>
	<polygon
   id="Quebradillas"
   inkscape:label="Quebradillas"
   class="st0"
   points="264.9,37.6 276.3,35.3 278.5,35.3 287.7,37.6    290,39.9 294.6,39.9 299.2,42.2 303.6,42.2 310.4,42.2 310.4,55.8 310.4,62.6 310.4,74.1 310.4,83.3 310.4,96.9 310.4,106    310.4,108.2 312.8,115 310.4,124.2 310.4,128.7 312.8,140.1 306,140.1 303.6,135.5 299.2,133.3 294.6,131 292.2,126.4 292.2,124.2    292.2,117.4 292.2,115 292.2,112.8 285.3,112.8 278.5,112.8 276.3,112.8 273.9,110.6 271.7,108.2 273.9,106 276.3,103.7    278.5,103.7 283.1,99.1 283.1,96.9 278.5,94.5 276.3,92.3 273.9,80.9 271.7,80.9 264.9,78.7 258.1,69.6 260.3,65 264.9,58.2    260.3,51.4 269.5,46.8  ">
	</polygon>
	<polygon
   id="Rincon"
   inkscape:label="Rincon"
   class="st0"
   points="71.1,167.6 73.5,169.8 80.3,181.2 82.5,183.4 84.9,185.6    82.5,185.6 75.7,188 73.5,188 71.1,185.6 68.8,185.6 62,190.2 53,190.2 50.6,192.5 48.4,197.1 43.8,197.1 41.6,197.1 41.6,194.9    39.2,192.5 36.9,185.6 32.3,181.2 30.1,176.6 27.9,167.6 21.1,158.3 18.7,156.1 16.5,153.7 16.5,151.5 14.1,149.3 14.1,146.9    11.9,142.5 14.1,137.9 16.5,137.9 21.1,135.5 23.3,135.5 34.7,133.3 39.2,131 48.4,144.7 48.4,146.9 48.4,153.7 59.8,165.2    62,165.2  ">
	</polygon>
	<polygon
   id="Rio_Grande"
   inkscape:label="Rio  Grande"
   class="st0"
   points="1185.6,206.1 1183.4,208.5 1181.2,210.7    1178.8,215.3 1174.4,219.8 1172,219.8 1169.8,222.1 1167.6,219.8 1165.2,217.5 1162.9,217.5 1160.6,215.3 1158.3,212.9    1151.5,210.7 1149.3,208.5 1144.7,203.9 1142.5,203.9 1140.1,203.9 1140.1,199.5 1142.5,199.5 1144.7,194.9 1142.5,194.9    1142.5,190.2 1140.1,190.2 1137.9,188 1137.9,183.4 1142.5,183.4 1144.7,178.8 1140.1,172 1140.1,169.8 1135.6,167.6 1135.6,162.9    1133.3,158.3 1133.3,153.7 1133.3,151.5 1133.3,146.9 1133.3,144.7 1133.3,142.5 1135.6,142.5 1135.6,140.1 1135.6,137.9    1135.6,135.5 1137.9,133.3 1140.1,133.3 1140.1,131 1142.5,131 1142.5,128.7 1146.9,128.7 1149.3,121.8 1149.3,119.6 1149.3,117.4    1151.5,115 1151.5,112.8 1153.9,110.6 1156.1,110.6 1158.3,108.2 1160.6,106 1162.9,103.7 1165.2,101.5 1167.6,99.1 1167.6,96.9    1172,94.5 1174.4,96.9 1178.8,103.7 1181.2,103.7 1183.4,106 1188,106 1197.1,99.1 1201.7,94.5 1201.7,96.9 1203.9,96.9    1201.7,99.1 1197.1,103.7 1194.8,106 1194.8,108.2 1197.1,110.6 1199.5,108.2 1201.7,108.2 1206.3,108.2 1210.7,103.7    1213.1,101.5 1215.3,101.5 1217.5,101.5 1217.5,103.7 1217.5,106 1217.5,108.2 1215.3,110.6 1217.5,112.8 1217.5,115 1233.6,126.4    1231.4,131 1224.4,135.5 1222.1,135.5 1222.1,140.1 1217.5,142.5 1219.9,149.3 1219.9,151.5 1222.1,151.5 1224.4,153.7    1224.4,156.1 1226.8,156.1 1229,160.6 1231.4,162.9 1231.4,167.6 1229,169.8 1229,172 1229,174.4 1233.6,174.4 1235.8,176.6    1233.6,178.8 1233.6,181.2 1231.4,181.2 1229,181.2 1226.8,183.4 1224.4,190.2 1224.4,192.5 1224.4,194.9 1229,199.5 1229,201.7    1226.8,201.7 1226.8,206.1 1224.4,206.1 1222.1,208.5 1222.1,210.7 1219.9,215.3 1217.5,212.9 1215.3,212.9 1210.7,208.5    1208.5,206.1 1206.3,201.7 1203.9,201.7 1199.5,199.5 1199.5,203.9 1194.8,206.1 1190.2,208.5 1188,206.1  ">
	</polygon>
	<polygon
   id="Sabana_Grande"
   inkscape:label="Sabana Grande"
   class="st0"
   points="242.2,358.8 242.2,356.4 244.4,354.4 246.6,347.4    249,342.8 253.4,340.5 253.4,338.3 246.6,326.9 253.4,329.1 255.8,326.9 258.1,324.7 260.3,326.9 262.7,326.9 269.5,324.7    278.5,324.7 280.9,324.7 283.1,322.3 290,322.3 290,326.9 290,329.1 294.6,338.3 296.8,342.8 296.8,347.4 294.6,347.4 290,352    292.2,356.4 296.8,363.2 294.6,370.2 294.6,372.5 299.2,377.1 299.2,381.5 299.2,386.1 301.4,392.9 306,397.5 308.2,397.5    308.2,402.1 310.4,409 310.4,411.2 312.8,413.4 312.8,415.8 315,418 317.3,418 319.6,422.6 321.9,427.2 317.3,429.4 312.8,429.4    310.4,427.2 306,427.2 301.4,427.2 301.4,429.4 294.6,424.8 285.3,422.6 283.1,422.6 280.9,424.8 278.5,422.6 276.3,422.6    271.7,420.2 267.3,420.2 262.7,420.2 260.3,418 255.8,415.8 244.4,413.4 242.2,404.4 244.4,383.9 242.2,374.7 242.2,363.2  ">
	</polygon>
	<polygon
   id="Salinas"
   inkscape:label="Salinas"
   class="st0"
   points="841.5,374.7 841.5,372.5 843.9,370.2 848.3,370.2 853,370.2    857.6,370.2 857.6,372.5 859.8,374.7 859.8,377.1 859.8,381.5 859.8,383.9 866.6,390.7 871.2,392.9 871.2,395.3 871.2,397.5    871.2,402.1 868.8,404.4 871.2,411.2 873.4,411.2 878,409 889.5,406.6 889.5,404.4 893.9,404.4 900.7,409 893.9,422.6 882.6,429.4    875.6,431.7 873.4,434 868.8,438.5 868.8,440.9 868.8,452.1 868.8,463.6 868.8,468.2 868.8,481.8 866.6,481.8 862,484 859.8,484    857.6,486.2 855.2,488.6 850.7,490.9 846.1,495.5 848.3,502.3 848.3,504.5 848.3,506.9 846.1,506.9 843.9,506.9 843.9,504.5    841.5,500.1 834.7,500.1 836.9,504.5 836.9,509.1 832.5,506.9 830.1,506.9 827.9,504.5 821,497.7 818.8,495.5 816.4,493.2    812,493.2 807.4,493.2 807.4,495.5 802.8,497.7 800.6,497.7 793.8,484 782.3,477.2 779.9,470.4 777.7,470.4 775.5,468.2    773.3,468.2 768.7,468.2 764.1,468.2 761.7,470.4 759.5,465.8 759.5,461.3 757.2,454.3 764.1,443.1 766.3,438.5 777.7,424.8    779.9,424.8 782.3,422.6 782.3,413.4 784.5,409 789.1,406.6 793.8,402.1 805,399.7 805,397.5 807.4,392.9 809.6,390.7 814.2,392.9    816.4,392.9 818.8,390.7 825.7,388.3 825.7,386.1 832.5,386.1 839.3,386.1 841.5,379.3 841.5,377.1  ">
	</polygon>
	<polygon
   id="San_German"
   inkscape:label="San German"
   class="st0"
   points="173.8,392.9 166.9,395.3 157.7,395.3 150.9,397.5    141.9,399.7 144.1,395.3 146.3,392.9 148.7,390.7 150.9,390.7 150.9,388.3 148.7,386.1 146.3,386.1 144.1,386.1 144.1,381.5    144.1,374.7 144.1,372.5 148.7,358.8 155.5,358.8 160.1,361 164.6,358.8 164.6,356.4 166.9,354.4 166.9,352 166.9,349.8    155.5,340.5 153.3,333.7 153.3,329.1 160.1,326.9 162.3,322.3 160.1,322.3 160.1,317.7 160.1,311 162.3,308.6 164.6,306.4    171.4,301.8 180.6,301.8 189.6,301.8 189.6,304 192,304 194.2,306.4 201.1,306.4 207.9,308.6 212.5,308.6 219.3,311 223.9,315.5    226.1,315.5 228.4,315.5 230.8,315.5 230.8,317.7 233,317.7 235.2,320.1 235.2,322.3 237.6,324.7 246.6,326.9 253.4,338.3    253.4,340.5 249,342.8 246.6,347.4 244.4,354.4 242.2,356.4 242.2,358.8 242.2,363.2 242.2,374.7 244.4,383.9 242.2,404.4    235.2,404.4 228.4,402.1 223.9,397.5 214.7,399.7 207.9,397.5 196.5,397.5 185.2,395.3 180.6,392.9  ">
	</polygon>
	<polygon
   id="San_Juan"
   onclick="selectArea()"
   onmouseover="changeColor()"
   inkscape:label="San Juan"
   class="st0"
   points="   996.6,188 996.6,190.2 994.2,192.5 996.6,194.9 996.6,199.5 994.2,199.5 992,194.9 980.6,194.9 976,199.5 973.7,199.5 971.5,201.7    969.1,199.5 964.7,197.1 966.9,194.9 966.9,190.2 962.3,183.4 962.3,181.2 962.3,176.6 964.7,169.8 955.5,165.2 953.3,162.9    955.5,156.1 955.5,153.7 957.9,151.5 962.3,151.5 962.3,149.3 960.1,137.9 957.9,133.3 950.9,131 948.7,128.7 946.3,124.2    946.3,115 946.3,112.8 948.7,112.8 955.5,112.8 957.9,112.8 957.9,110.6 955.5,99.1 953.3,96.9 948.7,92.3 946.3,90.1 948.7,90.1    953.3,87.7 962.3,80.9 964.7,80.9 966.9,80.9 966.9,78.7 966.9,76.5 964.7,74.1 962.3,74.1 960.1,74.1 957.9,74.1 953.3,71.8    950.9,69.6 948.7,69.6 948.7,67.2 948.7,65 948.7,62.6 953.3,65 953.3,62.6 948.7,60.4 944.1,60.4 941.8,60.4 941.8,62.6 939.6,65    939.6,62.6 937.2,60.4 935,58.2 932.6,55.8 932.6,53.6 939.6,55.8 944.1,55.8 946.3,55.8 950.9,58.2 962.3,55.8 964.7,58.2    971.5,62.6 973.7,65 982.8,67.2 985.2,67.2 989.6,67.2 998.8,69.6 1003.4,67.2 1003.4,71.8 998.8,76.5 1001,78.7 1003.4,80.9    1007.9,83.3 1007.9,87.7 1010.3,90.1 1010.3,92.3 1017.1,96.9 1026.1,103.7 1032.9,106 1039.8,108.2 1039.8,112.8 1039.8,115    1030.7,117.4 1030.7,126.4 1032.9,131 1026.1,131 1021.7,131 1012.5,131 1007.9,137.9 1005.6,140.1 1005.6,151.5 1003.4,158.3    1005.6,167.6 1003.4,174.4 1003.4,178.8 1005.6,181.2 1001,188 998.8,188  ">
	</polygon>
	<polygon
   id="San_Lorenzo"
   inkscape:label="San Lorenzo"
   class="st0"
   points="1087.7,313.3 1089.9,320.1 1092.3,329.1 1092.3,333.7    1094.5,336.1 1094.5,340.5 1092.3,347.4 1092.3,349.8 1094.5,356.4 1092.3,358.8 1092.3,363.2 1089.9,367.8 1087.7,370.2    1085.3,372.5 1080.9,374.7 1078.7,374.7 1076.3,372.5 1074.1,372.5 1071.7,372.5 1069.5,372.5 1067.2,374.7 1064.8,377.1    1062.6,377.1 1058,374.7 1051.2,370.2 1046.6,374.7 1039.8,374.7 1032.9,381.5 1030.7,386.1 1028.5,386.1 1026.1,386.1    1019.3,381.5 1017.1,379.3 1019.3,379.3 1021.7,372.5 1023.9,370.2 1023.9,367.8 1017.1,363.2 1014.9,363.2 1012.5,363.2    1007.9,363.2 1003.4,363.2 998.8,363.2 998.8,361 994.2,358.8 992,358.8 992,356.4 992,354.4 998.8,354.4 1001,352 1003.4,352    1005.6,349.8 1007.9,345.2 1007.9,342.8 1007.9,340.5 1012.5,338.3 1014.9,336.1 1017.1,329.1 1017.1,326.9 1014.9,320.1    1014.9,313.3 1014.9,311 1017.1,308.6 1023.9,297.4 1030.7,292.8 1032.9,290.4 1035.3,290.4 1035.3,288.2 1032.9,286 1032.9,283.6    1035.3,276.7 1039.8,272.3 1042.2,267.7 1042.2,265.5 1044.4,265.5 1046.6,265.5 1049,263.1 1055.8,256.3 1064.8,256.3    1071.7,256.3 1071.7,267.7 1076.3,272.3 1076.3,274.5 1083.1,281.3 1085.3,283.6 1089.9,283.6 1092.3,290.4 1092.3,301.8    1089.9,308.6  ">
	</polygon>
	<polygon
   id="San_Sebastian"
   inkscape:label="San Sebastian"
   class="st0"
   points="303.6,235.8 296.8,233.6 287.7,233.6    280.9,231.2 278.5,231.2 276.3,229 273.9,219.8 271.7,219.8 264.9,219.8 262.7,219.8 260.3,222.1 258.1,224.4 255.8,226.6    253.4,226.6 253.4,224.4 253.4,222.1 251.2,217.5 246.6,217.5 239.8,217.5 235.2,217.5 226.1,212.9 223.9,212.9 216.9,215.3    207.9,212.9 203.3,208.5 198.9,203.9 196.5,194.9 187.4,190.2 196.5,178.8 201.1,174.4 201.1,172 201.1,167.6 198.9,165.2    196.5,160.6 192,153.7 192,151.5 196.5,149.3 196.5,146.9 198.9,140.1 198.9,137.9 198.9,135.5 201.1,131 203.3,124.2 207.9,117.4    226.1,117.4 228.4,117.4 233,119.6 237.6,121.8 242.2,124.2 246.6,124.2 251.2,124.2 262.7,126.4 271.7,131 273.9,133.3 280.9,131    280.9,128.7 280.9,126.4 283.1,121.8 285.3,119.6 287.7,119.6 292.2,117.4 292.2,124.2 292.2,126.4 294.6,131 299.2,133.3    303.6,135.5 306,140.1 312.8,140.1 317.3,140.1 312.8,160.6 308.2,176.6 306,178.8 306,181.2 303.6,194.9 301.4,199.5 301.4,206.1    301.4,215.3 303.6,224.4  ">
	</polygon>
	<polygon
   id="Santa_Isabel"
   inkscape:label="Santa Isabel"
   class="st0"
   points="754.9,475 745.8,479.4 736.8,488.6 727.6,500.1    723,502.3 720.7,500.1 702.5,486.2 697.9,484 695.7,484 691,484 688.8,484 686.6,479.4 677.4,470.4 675.2,463.6 673,463.6    675.2,461.3 682,456.7 684.2,452.1 684.2,447.7 684.2,443.1 686.6,440.9 688.8,440.9 691,438.5 695.7,434 691,422.6 691,418    691,413.4 716.1,418 720.7,415.8 723,415.8 729.9,420.2 734.4,422.6 736.8,422.6 748.2,418 750.4,422.6 752.6,427.2 754.9,429.4    759.5,431.7 764.1,431.7 766.3,438.5 764.1,443.1 757.2,454.3 759.5,461.3 759.5,465.8 761.7,470.4 759.5,470.4  ">
	</polygon>
	<polygon
   id="Toa_Alta"
   inkscape:label="Toa Alta"
   class="st0"
   points="841.5,117.4 843.9,115 843.9,112.8 846.1,112.8 875.6,121.8    873.4,135.5 873.4,140.1 875.6,142.5 875.6,144.7 875.6,146.9 873.4,151.5 873.4,158.3 873.4,165.2 868.8,167.6 871.2,174.4    868.8,183.4 866.6,178.8 862,178.8 862,176.6 859.8,169.8 855.2,169.8 853,172 848.3,176.6 846.1,178.8 846.1,176.6 841.5,172    841.5,169.8 836.9,172 834.7,172 834.7,176.6 830.1,174.4 825.7,169.8 823.3,172 816.4,174.4 814.2,172 812,172 809.6,172    805,160.6 805,158.3 802.8,156.1 802.8,153.7 800.6,151.5 798.2,149.3 796,146.9 789.1,142.5 789.1,140.1 786.8,142.5 784.5,144.7    782.3,144.7 779.9,142.5 777.7,140.1 777.7,137.9 779.9,135.5 779.9,131 782.3,131 786.8,128.7 789.1,126.4 802.8,126.4    802.8,128.7 807.4,128.7 816.4,126.4 821,124.2 825.7,124.2 827.9,121.8 830.1,119.6 836.9,117.4  ">
	</polygon>
	<polygon
   id="Toa_Baja"
   inkscape:label="Toa Baja"
   class="st0"
   points="914.5,65 919,60.4 923.6,55.8 921.4,51.4 925.8,51.4    925.8,53.6 925.8,58.2 923.6,62.6 916.8,67.2 914.5,69.6 914.5,71.8 912.2,74.1 909.9,76.5 903.1,76.5 903.1,78.7 900.7,80.9    900.7,83.3 898.5,83.3 896.3,83.3 896.3,85.5 898.5,87.7 896.3,90.1 896.3,92.3 893.9,96.9 889.5,96.9 887.2,94.5 884.9,96.9    882.6,96.9 880.3,99.1 875.6,101.5 875.6,106 875.6,110.6 875.6,112.8 875.6,117.4 875.6,121.8 846.1,112.8 843.9,112.8 843.9,115    841.5,117.4 836.9,117.4 830.1,119.6 827.9,117.4 825.7,106 827.9,103.7 827.9,101.5 825.7,99.1 823.3,101.5 821,99.1 821,96.9    823.3,94.5 825.7,94.5 825.7,87.7 827.9,80.9 825.7,71.8 825.7,67.2 830.1,67.2 834.7,69.6 836.9,69.6 836.9,67.2 839.3,67.2    841.5,67.2 843.9,69.6 848.3,71.8 848.3,67.2 853,65 857.6,60.4 864.4,58.2 873.4,58.2 875.6,58.2 880.3,58.2 882.6,55.8    884.9,53.6 884.9,51.4 882.6,51.4 884.9,49 887.2,49 889.5,51.4 889.5,53.6 887.2,53.6 884.9,53.6 884.9,55.8 884.9,58.2    884.9,62.6 887.2,65 889.5,67.2 891.7,69.6 896.3,69.6 896.3,71.8 903.1,71.8 903.1,69.6 905.3,69.6 907.7,69.6 909.9,69.6    912.2,65  ">
	</polygon>
	<polygon
   id="Trujillo_Alto"
   inkscape:label="Trujillo Alto"
   class="st0"
   points="1005.6,140.1 1007.9,137.9 1012.5,131 1021.7,131    1026.1,131 1032.9,131 1035.3,131 1039.8,133.3 1042.2,142.5 1053.6,153.7 1058,167.6 1060.4,172 1062.6,176.6 1064.8,178.8    1069.5,183.4 1080.9,188 1083.1,190.2 1080.9,203.9 1071.7,201.7 1062.6,197.1 1060.4,194.9 1058,190.2 1055.8,190.2 1044.4,188    1037.5,192.5 1035.3,192.5 1028.5,194.9 1026.1,194.9 1021.7,190.2 1019.3,190.2 1017.1,192.5 1010.3,190.2 1007.9,190.2    1005.6,190.2 1003.4,190.2 1001,188 1005.6,181.2 1003.4,178.8 1005.6,174.4 1005.6,167.6 1003.4,158.3 1005.6,151.5  ">
	</polygon>
	<polygon
   id="Ututado"
   inkscape:label="Utuado"
   class="st0"
   points="486,178.8 488.2,178.8 492.8,176.6 495.2,176.6 501.8,181.2    506.5,178.8 508.8,176.6 508.8,174.4 513.3,174.4 515.7,176.6 520.1,176.6 522.5,174.4 524.7,174.4 526.9,174.4 529.3,174.4    531.5,174.4 533.9,172 536.1,169.8 540.7,169.8 545.2,174.4 543,178.8 556.6,176.6 563.4,178.8 563.4,181.2 565.8,183.4    565.8,185.6 572.6,190.2 577.1,199.5 572.6,201.7 570.3,208.5 570.3,210.7 568,210.7 563.4,210.7 558.8,210.7 556.6,210.7    554.4,210.7 552.2,212.9 552.2,215.3 554.4,217.5 554.4,219.8 552.2,224.4 552.2,238 538.4,240.4 536.1,240.4 533.9,240.4    531.5,240.4 531.5,242.6 531.5,251.7 529.3,256.3 529.3,258.7 526.9,263.1 524.7,272.3 520.1,274.5 515.7,286 517.9,295 508.8,295    508.8,306.4 511.1,315.5 508.8,315.5 506.5,317.7 499.6,320.1 497.4,320.1 495.2,320.1 490.6,322.3 490.6,315.5 492.8,308.6    495.2,308.6 499.6,304 499.6,301.8 495.2,299.4 492.8,297.4 490.6,295 486,292.8 486,290.4 483.8,286 486,281.3 486,279.1    486,276.7 481.4,274.5 481.4,272.3 476.9,267.7 465.5,267.7 444.9,258.7 440.4,263.1 438.2,263.1 426.8,260.9 422.2,258.7    422.2,254.1 420,251.7 420,249.4 408.5,240.4 403.9,238 397.1,238 394.9,238 394.9,240.4 390.3,244.8 390.3,247.2 390.3,251.7    392.5,256.3 390.3,256.3 390.3,258.7 387.9,258.7 376.6,256.3 369.8,244.8 369.8,231.2 369.8,229 369.8,224.4 369.8,219.8    367.4,215.3 367.4,208.5 372,188 369.8,185.6 369.8,183.4 369.8,176.6 394.9,178.8 403.9,178.8 415.3,178.8 415.3,176.6    426.8,165.2 429,165.2 433.6,160.6 438.2,160.6 440.4,158.3 442.6,156.1 447.3,156.1 449.5,160.6 451.9,162.9 454.1,165.2    456.3,167.6 454.1,167.6 451.9,169.8 454.1,174.4 456.3,178.8 456.3,181.2 456.3,183.4 460.9,183.4 465.5,183.4 467.7,181.2    472.3,178.8 474.5,178.8 479.2,178.8 481.4,181.2 483.8,178.8  ">
	</polygon>
	<polygon
   id="Vega_Alta"
   inkscape:label="Vega Alta"
   class="st0"
   points="736.8,167.6 734.4,165.2 734.4,162.9 729.9,160.6    732.2,151.5 734.4,149.3 734.4,146.9 734.4,140.1 736.8,128.7 741.2,124.2 741.2,121.8 741.2,117.4 743.6,108.2 745.8,96.9    748.2,94.5 750.4,92.3 752.6,92.3 752.6,87.7 752.6,78.7 752.6,71.8 752.6,69.6 752.6,51.4 752.6,42.2 764.1,42.2 775.5,49    779.9,51.4 779.9,55.8 779.9,65 779.9,67.2 777.7,71.8 782.3,78.7 782.3,80.9 786.8,85.5 791.4,85.5 791.4,90.1 791.4,92.3    793.8,94.5 793.8,96.9 791.4,99.1 789.1,103.7 789.1,112.8 789.1,126.4 786.8,128.7 782.3,131 779.9,131 779.9,135.5 777.7,137.9    777.7,140.1 768.7,140.1 766.3,140.1 761.7,140.1 761.7,142.5 759.5,144.7 759.5,146.9 759.5,149.3 757.2,149.3 754.9,146.9    752.6,146.9 750.4,146.9 748.2,146.9 748.2,151.5 752.6,153.7 752.6,156.1 750.4,156.1 750.4,158.3 748.2,158.3 748.2,160.6    745.8,160.6 745.8,162.9 745.8,167.6 745.8,172 741.2,169.8 739,169.8  ">
	</polygon>
	<polygon
   id="Vega_Baja"
   inkscape:label="Vega Baja"
   class="st0"
   points="729.9,160.6 727.6,162.9 723,160.6 723,158.3 720.7,153.7    720.7,144.7 720.7,142.5 718.5,142.5 716.1,137.9 711.7,144.7 709.3,142.5 700.3,137.9 700.3,135.5 697.9,135.5 697.9,133.3    695.7,133.3 693.4,133.3 691,137.9 688.8,137.9 677.4,137.9 675.2,133.3 675.2,131 675.2,126.4 673,124.2 673,121.8 673,119.6    679.8,112.8 679.8,108.2 679.8,106 679.8,87.7 679.8,80.9 679.8,74.1 679.8,69.6 679.8,60.4 682,42.2 684.2,39.9 697.9,39.9    713.9,35.3 716.1,35.3 729.9,39.9 732.2,39.9 752.6,42.2 752.6,51.4 752.6,69.6 752.6,71.8 752.6,78.7 752.6,87.7 752.6,92.3    750.4,92.3 748.2,94.5 745.8,96.9 743.6,108.2 741.2,117.4 741.2,121.8 741.2,124.2 736.8,128.7 734.4,140.1 734.4,146.9    734.4,149.3 732.2,151.5  ">
	</polygon>
	<polygon
   id="Villalba"
   inkscape:label="Villalba"
   class="st0"
   points="647.9,377.1 643.3,372.5 640.9,370.2 638.7,367.8    636.5,367.8 629.6,370.2 627.2,370.2 627.2,372.5 629.6,374.7 629.6,377.1 627.2,381.5 625,381.5 622.8,381.5 618.2,377.1    613.6,374.7 606.8,358.8 609,356.4 613.6,347.4 609,338.3 609,336.1 609,333.7 611.4,331.5 613.6,326.9 613.6,322.3 620.4,317.7    622.8,315.5 627.2,311 629.6,311 631.8,311 634.2,308.6 640.9,311 650.1,306.4 652.3,304 654.7,299.4 656.9,299.4 663.8,301.8    666,301.8 668.4,299.4 670.6,299.4 675.2,301.8 677.4,301.8 679.8,304 688.8,311 688.8,313.3 688.8,317.7 695.7,326.9 695.7,336.1    693.4,338.3 686.6,352 695.7,367.8 688.8,372.5 686.6,377.1 686.6,381.5 684.2,379.3 682,379.3 679.8,379.3 677.4,379.3    675.2,379.3 670.6,379.3 663.8,379.3  ">
	</polygon>
	<polygon
   id="Vieques"
   class="st0"
   points="1561.5,361.7 1561.1,362.2 1560.6,362.2 1560.6,362.6 1560.2,362.6 1559.8,363.4 1559.4,363.8 1559,364.3 1558.2,364.3 1558.2,363.8 1557.3,363.8 1557.3,363.4 1556.5,363.4 1556.1,363 1553.6,363 1553.2,362.6 1550.7,362.6 1550.3,363 1549.5,363.4 1549.1,363.4 1548.7,363.8 1547.4,363.8 1547,364.3 1545.8,364.3 1545.3,364.7 1544.5,364.7 1544.5,365.1 1544.1,365.1 1544.1,365.5 1543.3,366 1543.3,366.4 1542,366.4 1542,365.1 1541.6,364.7 1541.2,363.8 1541.2,363.4 1540.8,363.4 1540.8,362.6 1540.4,362.2 1540.4,361.7 1540,361.3 1539.6,360.9 1539.2,360.9 1538.7,360.5 1538.3,360.5 1538.3,360.9 1537.1,360.9 1536.3,360.5 1534.2,360.5 1533.8,360.9 1533.4,360.9 1533.4,361.3 1532.9,361.3 1532.5,361.7 1532.5,362.2 1532.1,362.2 1532.1,363 1531.7,363.4 1531.7,365.1 1532.1,365.1 1532.1,365.5 1532.9,365.5 1533.4,366 1533.4,366.8 1532.9,367.2 1532.1,367.2 1531.7,367.7 1530.5,367.7 1530.1,368.1 1529.2,368.1 1528.8,368.5 1528,368.5 1527.6,368.9 1527.2,368.9 1527.2,369.3 1526.8,369.3 1526.8,368.9 1526.3,368.5 1525.5,368.1 1525.1,367.7 1524.7,367.7 1524.3,367.2 1523,367.2 1522.6,367.7 1521.8,367.7 1521.4,368.1 1521,368.1 1520.6,368.5 1520.1,368.5 1520.1,368.9 1519.7,368.9 1519.3,369.3 1519.3,369.8 1518.9,369.8 1518.9,370.6 1518.5,371 1518.5,371.5 1518.1,371.5 1517.7,371 1517.2,370.6 1517.2,370.2 1516.8,369.8 1516.8,369.3 1516.4,368.9 1516,368.5 1514.4,368.5 1514.4,368.9 1513.9,368.9 1513.9,371.9 1513.5,371.9 1513.5,373.6 1513.9,374 1513.9,374.4 1513.5,374 1513.1,374 1512.7,373.2 1511.9,373.2 1511.9,372.7 1511.5,372.7 1511.1,373.2 1511.1,374 1511.5,374.4 1511.5,374.8 1511.9,375.3 1511.9,377 1511.5,377 1511.5,377.4 1510.6,377.4 1510.6,377 1510.2,376.5 1509.8,376.5 1509.8,376.1 1509,376.1 1509,376.5 1508.6,376.5 1508.6,377.4 1508.2,378.2 1508.2,379.1 1505.3,379.1 1505.3,379.5 1504,379.5 1503.6,379.1 1502.8,379.1 1502.8,378.6 1502.4,378.6 1502.4,379.1 1501.1,379.1 1501.1,378.6 1500.7,378.6 1500.7,377.8 1501.1,377.8 1501.1,377.4 1502,377.4 1502.4,377 1503.2,377 1503.6,376.5 1504.4,376.5 1505.3,376.1 1507.3,376.1 1507.3,375.7 1507.8,375.7 1507.8,374.8 1508.2,374.8 1508.6,374.4 1509,374 1509.4,374 1509.4,373.2 1509.8,373.2 1509.8,371.9 1510.2,371.5 1510.2,370.6 1509.8,371 1509.8,371.5 1509.4,371.9 1509,371.9 1509,372.3 1506.9,372.3 1506.9,371.9 1506.5,371.9 1506.5,370.6 1506.9,370.6 1506.9,370.2 1506.5,370.2 1505.3,371 1504.9,371 1504.9,369.8 1504.4,369.8 1504.4,370.2 1504,370.6 1502.4,370.6 1502.4,369.3 1502.8,368.9 1502.8,368.5 1502.4,368.5 1502.4,368.1 1501.1,368.1 1501.1,368.5 1498.7,368.5 1498.7,368.1 1498.2,368.1 1497.8,367.7 1496.2,367.7 1496.2,367.2 1495.8,367.2 1495.3,366.8 1494.9,366 1494.5,366 1494.5,365.5 1494.1,365.5 1494.1,365.1 1493.7,365.1 1493.7,364.7 1492.9,364.7 1492.5,365.1 1492.1,365.1 1492.1,365.5 1491.6,365.5 1491.6,368.1 1491.2,368.5 1490.8,368.9 1490.8,370.6 1491.2,371 1491.2,371.9 1490.8,371.9 1490.8,371.5 1490.4,371 1490.4,370.6 1490,370.2 1490,369.8 1489.6,369.8 1489.6,369.3 1488.7,369.3 1488.3,368.9 1487.1,368.9 1486.7,369.3 1485.4,369.3 1485.4,369.8 1485,369.8 1484.6,370.2 1484.2,370.2 1484.2,372.7 1484.6,372.7 1484.6,373.2 1485,373.6 1485,374 1485.4,374.4 1485.4,375.3 1484.6,375.3 1484.6,374.8 1484.2,374.8 1483.8,375.3 1483.4,375.3 1483.4,375.7 1483,376.1 1483,377.4 1482.5,377.4 1482.5,380.3 1483,380.8 1483,381.2 1483.4,381.6 1483.8,382 1483.8,382.9 1483,382.9 1483,382.5 1482.5,382.5 1482.5,382 1482.1,382 1482.1,381.2 1481.7,380.8 1481.7,380.3 1481.3,380.3 1481.3,379.9 1480.9,379.9 1480.1,379.5 1479.7,379.5 1479.7,379.1 1475.9,379.1 1475.5,378.6 1473.9,378.6 1473.9,379.1 1472.6,379.1 1472.6,379.5 1472.2,379.5 1472.2,379.9 1471.8,379.9 1471.4,380.8 1471.4,381.2 1471,381.6 1471,382.5 1470.6,382.5 1470.6,382 1470.2,381.6 1469.7,381.6 1469.7,381.2 1468.9,380.8 1468.5,380.8 1468.1,380.3 1467.7,380.3 1467.3,380.8 1466.8,381.2 1466.4,381.2 1466.4,381.6 1466,381.6 1466,381.2 1465.6,381.2 1465.6,380.8 1465.2,380.8 1465.2,380.3 1464.4,380.3 1464.4,380.8 1463.9,380.8 1463.5,381.2 1463.1,381.6 1461.9,381.6 1461.9,379.5 1461.5,379.1 1461.5,378.6 1461.1,378.6 1461.1,378.2 1458.6,378.2 1458.6,379.1 1458.2,379.1 1458.2,379.9 1458.6,379.9 1458.6,380.3 1459,380.8 1459.4,381.6 1459.4,382 1459.8,382 1459.8,382.9 1459.4,382.9 1459.4,383.3 1459,383.3 1458.6,383.7 1457.3,383.7 1457.3,383.3 1456.9,383.3 1456.9,382.9 1456.5,382.9 1456.5,382.5 1454.4,382.5 1454,382.9 1453.6,382.9 1453.2,383.3 1452.8,383.3 1452.8,384.1 1452.4,384.1 1452.4,385 1452.8,385.4 1452.8,387.1 1452.4,387.1 1452,387.5 1451.2,387.5 1450.7,387.1 1450.3,387.1 1449.9,386.7 1449.5,385.8 1449.1,385.8 1449.1,385.4 1448.7,384.6 1448.2,383.7 1447.8,383.3 1447.8,382.9 1447.4,382.9 1447.4,382.5 1447.8,382.5 1447.8,382 1448.2,381.6 1448.2,380.8 1447.8,380.3 1447.8,379.9 1447,379.9 1447,379.5 1446.6,379.5 1446.2,379.9 1445.8,380.3 1445.4,380.3 1445.4,379.5 1444.9,379.5 1444.5,379.9 1444.5,380.3 1444.1,380.3 1443.7,380.8 1443.3,380.8 1442.9,381.2 1442.5,381.2 1442.1,381.6 1441.6,382 1441.2,382 1440.8,382.5 1440.4,382.9 1440,383.3 1440,384.1 1440.8,384.1 1441.6,384.6 1442.9,384.6 1442.9,385 1443.3,385 1443.3,385.4 1444.1,385.4 1444.1,385.8 1445.8,385.8 1446.2,386.2 1446.6,386.7 1447,387.1 1447.4,387.1 1447.4,387.5 1448.7,388.4 1449.1,388.8 1449.1,390 1448.7,390.5 1448.7,391.7 1448.2,391.7 1448.2,392.2 1447.8,392.2 1447.4,392.6 1447,393 1446.2,393 1446.2,393.4 1445.4,393.4 1444.9,393.9 1442.9,393.9 1442.9,394.3 1442.1,394.3 1441.6,394.7 1440.4,394.7 1440.4,395.1 1437.9,395.1 1437.9,394.7 1437.5,394.7 1437.1,394.3 1437.1,393.9 1436.7,393.9 1436.7,390 1436.3,389.6 1436.3,387.9 1436.7,387.9 1436.7,386.2 1436.3,386.2 1436.3,385.8 1435.4,385.8 1435,385.4 1434.2,385.4 1433.8,385 1430.9,385 1430.9,385.4 1429.7,385.4 1429.7,385.8 1429.2,385.8 1428.8,386.2 1428.4,386.2 1428.4,389.2 1430.1,389.2 1430.1,388.8 1431.3,388.8 1431.3,389.2 1433.4,389.2 1433.7,389.5 1433.8,389.6 1434.6,389.6 1435,390 1435.4,390 1435.4,390.5 1435.9,390.5 1435.9,391.7 1435.4,392.2 1435.4,392.6 1435,393 1434.6,393 1434.6,394.3 1434.2,394.3 1434.2,394.7 1433.8,395.1 1433.4,395.1 1433.4,395.5 1433,396 1433,396.8 1432.6,396.8 1432.6,397.2 1432.1,397.2 1431.7,397.7 1431.3,397.7 1431.3,398.1 1430.9,398.1 1430.9,398.5 1430.5,398.5 1430.5,398.1 1430.1,398.1 1430.1,396.8 1429.7,396.8 1429.7,396.4 1429.2,396.4 1429.2,396 1428.8,396 1428.4,396.4 1428.4,397.5 1427.2,399.3 1426.8,399.3 1425.9,398.9 1425.1,398.9 1424.7,398.5 1424.3,398.1 1424.3,397.7 1424.7,397.7 1425.1,396.8 1425.1,396.4 1425.5,395.5 1425.5,395.1 1425.9,394.7 1425.9,393.9 1425.5,393.9 1425.5,393.4 1425.1,393 1424.7,392.6 1424.3,392.6 1423.9,392.2 1423.5,392.2 1423.5,391.7 1422.6,391.7 1422.2,391.3 1418.9,391.3 1418.9,391.7 1418.1,391.7 1417.7,392.2 1417.3,392.2 1416.8,392.6 1416.4,393 1416.4,393.4 1416,393.4 1416,395.1 1416.4,395.5 1416.8,396.4 1417.3,396.4 1417.3,397.2 1417.7,397.2 1417.7,397.7 1417.3,397.7 1417.3,398.1 1416,398.1 1416,397.7 1415.6,397.7 1415.6,395.1 1415.2,394.7 1414.8,394.3 1414.4,393.9 1414,393.9 1413.6,393.4 1413.1,393.4 1411.9,393 1411.5,393 1411.1,392.6 1410.2,392.6 1409.4,392.2 1407.8,392.2 1407.3,391.7 1406.1,391.7 1406.1,392.2 1405.7,392.2 1403.6,392.6 1402.8,393 1399.5,393 1399.5,392.6 1397.8,392.6 1397.4,393 1396.2,393 1395.8,393.4 1395.4,393.4 1394.5,393.9 1393.7,393.9 1393.7,394.3 1390.4,394.3 1390,394.7 1388.8,394.7 1388.3,395.1 1387.1,395.5 1386.3,395.5 1385.9,396 1385.4,396 1385,396.4 1384.2,396.4 1383.4,397.2 1382.6,397.2 1382.6,397.7 1381.7,397.7 1381.3,398.1 1380.5,398.5 1380.1,398.9 1379.7,399.3 1379.3,399.3 1379.3,399.8 1378.4,400.2 1377.6,401 1377.2,401 1377.2,401.5 1376.8,401.9 1376.4,401.9 1375.5,402.7 1374.7,402.7 1374.7,403.2 1373.1,403.2 1371.8,403.6 1369.8,403.6 1369.8,404 1367.3,404 1366.9,403.6 1360.7,403.6 1359.8,403.2 1359,402.7 1358.2,402.7 1357.8,402.3 1356.5,402.3 1356.5,401.9 1355.7,401.9 1355.7,401.5 1354.1,401.5 1353.6,401 1351.6,401 1350.3,400.6 1349.9,400.6 1349.5,400.2 1349.1,400.2 1348.7,399.8 1348.3,399.8 1348.3,399.3 1347.9,399.3 1347.9,398.9 1347.4,398.9 1347.4,398.5 1346.6,398.5 1346.2,398.1 1345.4,398.1 1345,397.7 1344.1,397.7 1343.7,397.2 1343.7,396.8 1342.9,396.8 1342.5,396.4 1342.1,396 1341.7,395.5 1341.7,395.1 1341.2,394.7 1341.2,393.9 1340.8,393.4 1340.4,393 1340.4,391.3 1340,391.3 1340,390.5 1339.6,390.5 1339.6,390 1339.2,390 1338.8,389.6 1338.3,389.2 1337.9,388.8 1337.5,388.4 1337.1,388.4 1336.3,387.9 1335.9,387.5 1335.9,386.2 1336.3,385.8 1336.3,384.1 1336.7,383.3 1336.7,381.6 1337.1,381.6 1337.1,380.3 1336.7,379.9 1336.7,376.5 1336.3,376.5 1336.3,375.7 1335.9,375.3 1335.5,374.8 1335.5,374 1336.7,374 1337.5,374.4 1340.8,374.4 1341.7,374 1341.7,373.6 1347.4,373.6 1347.4,373.2 1348.7,373.2 1348.7,373.6 1353.2,373.6 1354.1,374 1359,374 1359.4,373.6 1359.8,373.6 1361.1,373.2 1362.7,372.7 1363.1,372.3 1364.4,371.9 1365.2,371.9 1365.6,371.5 1366,371.5 1366,371 1366.9,371 1367.3,370.6 1369.3,369.8 1370.2,369.3 1370.6,369.3 1371,368.9 1371.8,368.9 1371.8,368.5 1373.1,368.1 1373.5,368.1 1373.9,367.7 1374.3,367.7 1374.7,367.2 1376.4,367.2 1377.2,366.8 1379.3,366.8 1379.3,366.4 1380.1,366.4 1380.5,366 1380.9,366 1380.9,365.5 1381.3,365.1 1382.2,364.7 1383,363.8 1383,363.4 1383.4,363.4 1382,350.8 1382.3,350.3 1383.8,362.2 1384.2,362.2 1384.2,362.6 1388.3,362.6 1388.3,362.2 1389.2,362.2 1389.2,361.7 1389.6,361.7 1389.6,361.3 1390,361.3 1390,360.9 1390.8,360.9 1391.2,360.5 1391.7,360.5 1391.7,360.9 1393.3,360.9 1393.3,361.3 1396.6,361.3 1397,360.9 1399.1,360.9 1399.5,360.5 1399.9,360.5 1400.3,360 1402,360 1402.4,359.6 1402.8,359.6 1402.8,359.2 1403.2,359.2 1403.6,358.8 1404,358.3 1404.9,358.3 1404.9,357.9 1405.3,357.9 1406.1,357.5 1406.9,357.5 1406.9,357.1 1407.8,357.1 1408.2,356.7 1409.8,356.7 1409.8,356.2 1410.7,356.2 1411.1,355.8 1411.9,355.8 1412.3,355.4 1413.1,355.4 1414,355 1414.8,355 1415.2,354.5 1418.1,354.5 1418.5,354.1 1419.8,354.1 1420.2,353.7 1421.8,353.7 1422.6,353.3 1423.5,353.3 1423.9,352.9 1425.1,352.9 1425.9,353.3 1427.6,353.3 1429.2,352.9 1429.7,352.9 1430.1,352.4 1430.9,352.4 1430.9,352 1431.7,352 1431.7,351.6 1432.1,351.6 1432.6,351.2 1433,350.8 1433,350.3 1433.4,349.5 1433.8,349.5 1433.8,346.9 1433.4,346.5 1433.4,346.1 1433.8,346.1 1433.8,345.7 1434.2,345.2 1434.6,345.2 1434.6,344.8 1435.4,344.4 1436.3,344.4 1436.3,344 1437.5,344 1437.9,343.6 1438.8,343.6 1438.8,343.1 1442.9,343.1 1443.7,342.7 1447,342.7 1448.2,342.3 1451.6,342.3 1453.2,341.9 1454.9,341.9 1455.3,341.5 1458.2,341.5 1458.2,341 1459.4,341 1460.7,340.6 1462.7,340.6 1464.4,340.2 1465.6,340.2 1466,339.8 1466.4,339.8 1466.4,339.3 1466.8,339.3 1466.8,339.8 1470.2,339.8 1470.6,340.2 1471.8,340.2 1471.8,340.6 1472.6,340.6 1472.6,341 1477.2,341 1478,341.5 1479.2,341.5 1479.7,341.9 1480.1,341.9 1480.1,342.3 1480.5,342.3 1480.9,342.7 1481.7,342.7 1481.7,343.1 1483,343.1 1484.2,343.6 1485.8,343.6 1486.3,343.1 1487.5,343.1 1487.9,342.7 1490,342.7 1490.4,343.1 1491.2,343.1 1491.2,343.6 1491.6,343.6 1492.1,344 1492.1,344.4 1492.5,344.4 1492.5,344.8 1492.9,345.2 1492.9,345.7 1493.3,345.7 1493.3,346.1 1494.1,346.1 1494.5,346.5 1495.8,346.5 1495.8,346.1 1496.2,346.1 1496.6,345.7 1497.4,345.7 1497.4,345.2 1499.5,345.2 1499.9,345.7 1500.3,345.7 1500.7,346.1 1501.1,346.1 1501.1,346.5 1502,346.9 1502.4,347.4 1502.8,347.4 1503.2,347.8 1503.6,347.8 1504,348.2 1505.3,348.2 1505.7,348.6 1506.5,348.6 1506.9,349 1507.8,349 1508.2,349.5 1510.2,349.5 1511.1,349.9 1512.7,349.9 1513.1,350.3 1513.5,350.3 1513.9,350.8 1514.8,350.8 1515.2,351.2 1515.6,351.2 1516,351.6 1517.2,351.6 1517.2,351.2 1517.7,351.2 1517.7,350.8 1518.1,350.3 1518.5,350.3 1518.5,349.9 1519.7,349.9 1520.1,349.5 1520.6,349.5 1520.6,349.9 1521.4,349.9 1521.4,350.3 1521.8,350.3 1522.6,351.2 1523,351.2 1523,351.6 1523.9,351.6 1524.3,352 1525.5,352.4 1526.3,352.4 1527.2,352.9 1527.6,352.9 1528.4,353.3 1532.1,353.3 1532.5,352.9 1532.9,353.3 1533.4,353.3 1533.4,353.7 1533.8,353.7 1534.2,354.5 1534.6,354.5 1534.6,355 1535,355 1535.4,355.4 1535.8,355.4 1535.8,355.8 1537.5,355.8 1537.5,355.4 1537.9,355.4 1537.9,355 1538.3,355 1538.3,354.1 1539.6,354.1 1540.4,354.5 1542.5,354.5 1542.5,354.1 1542.9,354.1 1542.9,353.7 1543.3,353.7 1543.3,353.3 1543.7,353.3 1543.7,352.9 1544.1,352.9 1544.5,352.4 1544.9,352.4 1544.9,352 1545.3,352 1545.3,351.6 1545.8,351.6 1545.8,351.2 1546.2,351.2 1546.6,350.8 1547.4,350.8 1547.8,351.2 1548.2,351.6 1548.2,352 1548.7,352.4 1549.1,352.4 1549.1,352.9 1549.5,352.9 1549.5,353.3 1551.5,353.3 1551.5,353.7 1552,354.1 1552.4,354.5 1552.8,355 1553.2,355.8 1553.2,356.2 1553.6,356.2 1553.6,356.7 1554,357.1 1554.4,357.5 1554.8,357.9 1555.3,357.9 1555.3,358.8 1555.7,358.8 1555.7,359.6 1556.1,359.6 1556.1,360 1556.5,360.5 1556.9,360.5 1556.9,360.9 1559.8,360.9 1560.2,360.5 1561.1,360.5 1561.5,360 1562.3,360 1562.3,360.5 1562.7,360.5 1562.7,361.3 1562.3,361.3 1562.3,361.7 "
   style="display:inline" />
	<polygon
   id="Yabucoa"
   inkscape:label="Yabucoa"
   class="st0"
   points="1060.4,404.4 1058,404.4 1055.8,406.6 1055.8,404.4    1051.2,397.5 1044.4,399.7 1042.2,399.7 1035.3,399.7 1026.1,392.9 1026.1,390.7 1026.1,386.1 1028.5,386.1 1032.9,381.5    1039.8,374.7 1046.6,374.7 1051.2,370.2 1058,374.7 1062.6,377.1 1064.8,377.1 1067.2,374.7 1069.5,372.5 1071.7,372.5    1074.1,372.5 1076.3,372.5 1078.7,374.7 1080.9,374.7 1085.3,372.5 1087.7,370.2 1089.9,367.8 1092.3,363.2 1092.3,358.8    1092.3,356.4 1092.3,349.8 1094.5,349.8 1099.1,347.4 1101.4,347.4 1103.6,347.4 1103.6,345.2 1108.2,345.2 1112.8,345.2    1117.4,345.2 1124.2,347.4 1131,349.8 1137.9,354.4 1137.9,358.8 1142.5,358.8 1144.7,358.8 1142.5,356.4 1144.7,354.4 1146.9,352    1149.3,352 1153.9,349.8 1158.3,352 1160.6,356.4 1160.6,358.8 1156.1,365.6 1160.6,367.8 1160.6,370.2 1162.9,372.5 1162.9,374.7    1169.8,377.1 1176.6,381.5 1183.4,381.5 1185.6,383.9 1185.6,386.1 1188,390.7 1192.6,390.7 1197.1,390.7 1197.1,395.3    1194.8,397.5 1190.2,402.1 1188,402.1 1183.4,399.7 1183.4,397.5 1181.2,397.5 1178.8,397.5 1176.6,397.5 1172,404.4 1169.8,404.4    1169.8,406.6 1167.6,411.2 1167.6,418 1167.6,420.2 1169.8,422.6 1169.8,424.8 1169.8,431.7 1167.6,436.3 1167.6,440.9    1153.9,440.9 1153.9,438.5 1151.5,436.3 1149.3,436.3 1144.7,431.7 1144.7,429.4 1142.5,427.2 1140.1,427.2 1137.9,429.4    1135.6,429.4 1128.7,431.7 1124.2,424.8 1115,420.2 1108.2,420.2 1103.6,422.6 1094.5,420.2 1089.9,418 1087.7,418 1080.9,415.8    1071.7,411.2 1071.7,413.4 1067.2,406.6 1062.6,404.4  ">
	</polygon>
	<polygon
   id="Yauco"
   inkscape:label="Yauco"
   class="st0"
   points="308.2,326.9 308.2,324.7 317.3,324.7 317.3,322.3 317.3,320.1    319.6,320.1 321.9,320.1 326.5,324.7 330.9,329.1 333.3,331.5 340.1,331.5 342.3,331.5 344.7,333.7 344.7,331.5 346.9,326.9    349.2,311 351.5,313.3 356.1,313.3 360.6,308.6 360.6,306.4 369.8,304 372,308.6 369.8,313.3 372,315.5 374.2,320.1 378.8,322.3    385.7,324.7 387.9,324.7 387.9,326.9 387.9,329.1 387.9,331.5 392.5,336.1 392.5,342.8 392.5,347.4 387.9,349.8 383.4,352    383.4,354.4 381.1,354.4 381.1,356.4 385.7,367.8 385.7,370.2 387.9,372.5 378.8,386.1 376.6,388.3 376.6,390.7 376.6,395.3    374.2,397.5 376.6,399.7 369.8,409 369.8,411.2 374.2,422.6 376.6,424.8 374.2,424.8 367.4,434 365.2,440.9 369.8,443.1    369.8,449.9 367.4,449.9 365.2,449.9 365.2,452.1 360.6,458.9 360.6,465.8 360.6,472.6 360.6,477.2 346.9,486.2 344.7,486.2    342.3,486.2 340.1,479.4 340.1,477.2 337.9,458.9 340.1,456.7 340.1,452.1 340.1,449.9 335.5,443.1 328.7,436.3 326.5,434    321.9,427.2 319.6,422.6 317.3,418 315,418 312.8,415.8 312.8,413.4 310.4,411.2 310.4,409 308.2,402.1 308.2,397.5 306,397.5    301.4,392.9 299.2,386.1 299.2,381.5 299.2,377.1 294.6,372.5 294.6,370.2 296.8,363.2 292.2,356.4 290,352 294.6,347.4    296.8,347.4 296.8,342.8 294.6,338.3 290,329.1 290,326.9 290,322.3 296.8,320.1 301.4,320.1 306,324.7  ">
	</polygon>
</g>




</svg>
